<?xml version="1.0" standalone="no"?>
<!DOCTYPE svg PUBLIC "-//W3C//DTD SVG 1.1//EN" "http://www.w3.org/Graphics/SVG/1.1/DTD/svg11.dtd" >
<!--
2013-9-30: Created.
-->
<svg>
<metadata>
Created by iconfont
</metadata>
<defs>

<font id="iconfont" horiz-adv-x="1024" >
  <font-face
    font-family="iconfont"
    font-weight="500"
    font-stretch="normal"
    units-per-em="1024"
    ascent="896"
    descent="-128"
  />
    <missing-glyph />
    
    <glyph glyph-name="kehuguanli" unicode="&#58883;" d="M512 403.616a114.4 114.4 0 1 1 0 228.8 114.4 114.4 0 0 1 0-228.8z m-138.592-21.856c-7.296 5.76-13.824 12.448-23.552 22.88a92.416 92.416 0 0 0-18.368 183.68c4.512 11.168 18.368 27.84 28.8 37.44a132 132 0 0 1-76.896-250.88A187.072 187.072 0 0 1 160 199.04s2.112-15.232 20.64-15.232c18.56 0 18.976 15.232 18.976 15.232a147.424 147.424 0 0 0 135.104 146.88c17.888 12.864 30.272 18.112 51.2 26.912a268.896 268.896 0 0 0-0.896 0.608l0.192 0.064a142.176 142.176 0 0 0-11.84 8.32z m277.184 0c7.296 5.76 13.824 12.448 23.552 22.88a92.416 92.416 0 0 1 18.368 183.68c-4.512 11.168-18.368 27.84-28.8 37.44a132 132 0 0 0 76.896-250.88A187.072 187.072 0 0 0 864 199.04s-2.112-15.232-20.64-15.232c-18.56 0-18.976 15.232-18.976 15.232a147.424 147.424 0 0 1-135.104 146.88c-17.888 12.864-30.272 18.112-51.2 26.912l0.896 0.608-0.192 0.064a142.176 142.176 0 0 1 11.84 8.32z m-201.984-4.16a154.016 154.016 0 1 0 126.784 0 242.112 242.112 0 0 0 177.6-255.68s-2.496-20.736-22.208-17.504c-19.712 3.232-17.216 21.12-17.216 21.12a202.4 202.4 0 1 1-403.136-0.064s0.64-21.056-18.72-21.056-20.704 17.472-20.704 17.472a242.112 242.112 0 0 0 177.6 255.744z"  horiz-adv-x="1024" />

    
    <glyph glyph-name="caiwuhesuan" unicode="&#58880;" d="M256 691.968c0 24.32 19.744 44.032 44.096 44.032h439.808c24.32 0 44.096-19.552 44.096-44.032v-615.936c0-24.32-19.744-44.032-44.096-44.032h-439.808c-0.038-0-0.083-0-0.128-0-24.283 0-43.968 19.685-43.968 43.968 0 0.023 0 0.045 0 0.068l-0 615.932zM295.616 691.968v-615.936c0-2.496 1.92-4.448 4.48-4.448h439.808c0 0 0 0 0 0 2.474 0 4.48 2.006 4.48 4.48 0 0 0 0 0 0v615.872c0 0.019 0 0.042 0 0.065 0 2.421-1.963 4.384-4.384 4.384-0.034 0-0.068-0-0.102-0.001l-439.803 0c0 0 0 0 0 0-2.474 0-4.48-2.006-4.48-4.48zM379.2 493.952c0-4.928 3.84-8.768 8.64-8.768h264.32c4.736 0 8.64 3.936 8.64 8.768v88.128c0.001 0.048 0.001 0.104 0.001 0.16 0 4.754-3.854 8.608-8.608 8.608-0.012 0-0.024-0-0.035-0l-264.318 0c-4.783-0.054-8.64-3.944-8.64-8.735 0-0.011 0-0.023 0-0.034l-0-88.126zM387.84 626.016h264.32c24.192 0 43.84-19.52 43.84-43.968v-88.096c0-24.256-19.68-43.936-43.84-43.936h-264.32c-24.192 0-43.84 19.52-43.84 43.936v88.128c0 24.256 19.68 43.936 43.84 43.936zM366.016 361.984c0 12.16 10.080 22.016 22.176 22.016h43.616c0.038 0 0.083 0 0.128 0 12.172 0 22.044-9.849 22.080-22.013 0-12.163-10.112-21.987-22.208-21.987h-43.648c-0.038-0-0.083-0-0.128-0-12.172 0-22.044 9.849-22.080 22.013l0.064-0.029zM476 361.984c0 12.16 10.080 22.016 22.208 22.016h43.584c0.038 0 0.083 0 0.128 0 12.172 0 22.044-9.849 22.080-22.013 0-12.163-10.080-21.987-22.208-21.987h-43.552c-0.038-0-0.083-0-0.128-0-12.172 0-22.044 9.849-22.080 22.013l-0.032-0.029zM586.016 361.984c0 12.16 10.080 22.016 22.176 22.016h43.616c0.038 0 0.083 0 0.128 0 12.172 0 22.044-9.849 22.080-22.013 0-12.163-10.112-21.987-22.208-21.987h-43.616c-0.038-0-0.083-0-0.128-0-12.172 0-22.044 9.849-22.080 22.013l0.032-0.029zM366.016 265.984c0 12.16 10.080 22.016 22.176 22.016h43.616c0.038 0 0.083 0 0.128 0 12.172 0 22.044-9.849 22.080-22.013 0-12.163-10.112-21.987-22.208-21.987h-43.648c-0.038-0-0.083-0-0.128-0-12.172 0-22.044 9.849-22.080 22.013l0.064-0.029zM476 265.984c0 12.16 10.080 22.016 22.208 22.016h43.584c0.038 0 0.083 0 0.128 0 12.172 0 22.044-9.849 22.080-22.013 0-12.163-10.080-21.987-22.208-21.987h-43.552c-0.038-0-0.083-0-0.128-0-12.172 0-22.044 9.849-22.080 22.013l-0.032-0.029zM365.984 169.984c0 12.16 10.112 22.016 22.208 22.016h43.616c0.038 0 0.083 0 0.128 0 12.172 0 22.044-9.849 22.080-22.013 0-12.163-10.112-21.987-22.208-21.987h-43.648c-0.038-0-0.083-0-0.128-0-12.172 0-22.044 9.849-22.080 22.013l0.032-0.029zM476 169.984c0 12.16 10.080 22.016 22.208 22.016h43.584c0.038 0 0.083 0 0.128 0 12.172 0 22.044-9.849 22.080-22.013 0-12.163-10.080-21.987-22.208-21.987h-43.552c-0.038-0-0.083-0-0.128-0-12.172 0-22.044 9.849-22.080 22.013l-0.032-0.029zM586.016 265.984c0 12.16 10.080 22.016 22.176 22.016h43.616c0.038 0 0.083 0 0.128 0 12.172 0 22.044-9.849 22.080-22.013 0-12.163-10.112-21.987-22.208-21.987h-43.616c-0.038-0-0.083-0-0.128-0-12.172 0-22.044 9.849-22.080 22.013l0.032-0.029zM586.016 169.984c0 12.16 10.080 22.016 22.176 22.016h43.616c0.038 0 0.083 0 0.128 0 12.172 0 22.044-9.849 22.080-22.013 0-12.163-10.112-21.987-22.208-21.987h-43.616c-0.038-0-0.083-0-0.128-0-12.172 0-22.044 9.849-22.080 22.013l0.032-0.029z"  horiz-adv-x="1024" />

    
    <glyph glyph-name="gongzidan" unicode="&#58948;" d="M489.024 501.184v30.784h-48.448c-9.664 0.108-17.465 7.932-17.536 17.594-0 9.734 7.552 17.606 17.536 17.606h37.312l-43.488 51.84c-2.588 3.049-4.162 7.029-4.162 11.378 0 5.399 2.426 10.231 6.248 13.465 3.076 2.539 7.026 4.066 11.332 4.066 5.416 0 10.268-2.416 13.537-6.229l43.54-51.864 43.456 51.84c3.289 3.839 8.143 6.256 13.56 6.256 4.29 0 8.227-1.516 11.303-4.041 3.817-3.231 6.243-8.063 6.243-13.462 0-4.348-1.574-8.329-4.183-11.403l-43.499-51.815h49.696c9.664 0 17.536-8.192 17.536-17.6 0-9.728-7.584-17.6-17.536-17.6h-57.28v-30.816h57.28c9.664 0 17.536-8.16 17.536-17.6 0-9.728-7.584-17.6-17.536-17.6h-57.28v-35.136c-0-9.72-7.88-17.6-17.6-17.6-9.72 0-17.6 7.88-17.6 17.6l0 35.136h-48.448c-9.664 0.108-17.465 7.932-17.536 17.594-0 9.702 7.552 17.606 17.536 17.606h48.48zM258.080 537.984c-36.32-0-66.080-26.944-66.080-60.288v-385.344c0-33.312 29.632-60.352 66.176-60.352h505.664c36.608 0 66.144 27.008 66.144 60.32v385.344c0 33.28-29.44 60.352-65.824 60.352h-10.624v-39.616h10.624c15.2 0 26.24-10.112 26.24-20.736v-385.344c0-10.624-11.072-20.736-26.56-20.736h-505.664c-15.424 0-26.56 10.176-26.56 20.736v385.344c0 10.56 11.168 20.736 26.464 20.736h10.304v39.616h-10.304zM713.408 384h39.584v285.792c0 36.8-29.536 66.208-65.984 66.208h-352c-0 0-0 0-0 0-36.46 0-66.016-29.556-66.016-66.016 0-0.068 0-0.135 0-0.202l-0-285.782h39.616v285.792c0 14.784 11.744 26.624 26.4 26.624h352c14.656 0 26.4-11.776 26.4-26.624v-285.792zM231.616 384h558.784v-39.616h-558.784v39.616z"  horiz-adv-x="1024" />

    
    <glyph glyph-name="jingyingyuce" unicode="&#59098;" d="M199.584 626.208v-396.448c0-2.272 1.92-4.192 4.48-4.192h615.904c2.56 0 4.448 1.856 4.448 4.192v396.48c-0.051 2.328-1.951 4.196-4.287 4.196-0.068 0-0.135-0.002-0.202-0.005l-615.862 0c-2.56 0-4.448-1.856-4.448-4.192zM160 626.208c0.036 24.185 19.65 43.776 43.84 43.776 0.068 0 0.135-0 0.202-0l615.926 0c24.32 0 44.032-19.552 44.032-43.776v-396.448c-0.018-24.199-19.639-43.808-43.84-43.808-0.068 0-0.135 0-0.202 0l-615.926-0c-24.32 0-44.032 19.584-44.032 43.84v396.384zM441.44 462.432l125.76-105.536c2.88-2.4 6.24-3.808 9.76-4.256 0.917-0.152 1.973-0.239 3.050-0.239 4.781 0 9.162 1.71 12.565 4.552l121.441 101.895c4.28 3.667 6.974 9.078 6.974 15.118 0 4.854-1.741 9.302-4.632 12.753-3.66 4.271-9.098 6.98-15.168 6.98-4.815 0-9.232-1.704-12.681-4.543l-108.67-91.172-125.824 105.6c-3.342 2.761-7.67 4.436-12.389 4.436-2.184 0-4.284-0.359-6.244-1.020-3.508-1.046-6.595-3.076-8.943-5.768l-119.336-99.824c-4.28-3.667-6.974-9.078-6.974-15.118 0-4.854 1.741-9.302 4.632-12.753 3.66-4.271 9.098-6.98 15.168-6.98 4.815 0 9.232 1.704 12.681 4.543l108.83 91.332zM531.808 152.48l97.632-81.92c4.185-3.673 6.813-9.033 6.813-15.007 0-4.843-1.727-9.283-4.599-12.737-3.637-4.308-9.082-7.047-15.166-7.047-4.749 0-9.109 1.669-12.524 4.452l-95.068 79.78h-1.76l-86.72-72.8c-3.379-2.755-7.739-4.423-12.488-4.423-6.084 0-11.528 2.738-15.168 7.050-2.869 3.451-4.595 7.89-4.595 12.732 0 5.958 2.614 11.306 6.757 14.959l97.302 81.619v26.88h39.584v-33.536zM492.16 716.16c0 10.944 9.184 19.808 19.808 19.808 10.944 0 19.808-9.184 19.808-19.808v-46.208h-39.616v46.24z"  horiz-adv-x="1024" />

    
    <glyph glyph-name="paigongguanli" unicode="&#58886;" d="M351.68 647.808l-29.6 0.192c-0.048 0-0.104 0-0.16 0-36.407 0-65.92-29.513-65.92-65.92 0-0 0-0 0-0l-0-484.16c0-36.224 29.44-65.92 65.792-65.92h396.416c36.352 0.073 65.792 29.558 65.792 65.92 0 0-0 0-0 0l0 484.16c0 36.224-29.6 65.92-66.144 65.92 0 0-15.488-0.256-29.344-0.128 8.384-24.608 3.712-39.744 3.712-39.744l25.632 0.256c0 0 0.001 0 0.001 0 14.579 0 26.414-11.746 26.559-26.29l0-484.174c0-0 0-0 0-0 0-14.505-11.74-26.268-26.237-26.304l-396.355-0c-14.451 0.126-26.123 11.844-26.176 26.299l-0 484.165c0 14.592 11.712 26.304 26.464 26.304l25.12-0.576s-3.104 25.248 4.48 40zM417.44 577.696c-11.118 4.053-20.603 10.232-28.378 18.104-0.006-2.104-7.078 8.648-7.11 23.336 0 15.040 5.6 24.544 15.488 31.040 6.24 4.16 12.672 6.144 16.192 6.624l11.744 1.664 2.88 11.488c2.673 8.881 7.426 16.458 13.709 22.444 1.235 3.092 10.163 8.404 22.547 8.404h66.24v35.2h-66.24c-24.576 0-43.552-11.264-56.704-29.312-4.48-6.080-7.744-12.128-10.080-17.6-6.080-1.952-12.8-4.992-19.616-9.472-19.424-12.768-31.36-33.056-31.36-60.512 0.032-27.84 13.888-48.928 35.904-63.264 13.763-9.196 30.341-15.267 48.212-16.833l-10.676 1.889h111.072v35.2h-108.928c-7.296 2.136-13.664 5.095-19.467 8.851zM632.192 706.688c-13.152 18.048-32.128 29.312-56.704 29.312h-66.24v-35.2h66.24c12.384 0 21.312-5.312 28.288-14.848 4.48-6.176 7.072-12.48 8-16l2.88-11.52 11.712-1.6c3.52-0.512 9.92-2.528 16.192-6.624 9.92-6.528 15.488-16 15.488-31.072 0-14.688-7.104-25.44-19.936-33.792-9.525-6.229-20.916-10.423-33.176-11.697l-96.2 2.449v-35.2h111.072l3.712 0.416c8.896 1.92 21.248 6.368 33.824 14.528 22.016 14.336 35.872 35.424 35.904 63.264 0 27.456-11.936 47.744-31.36 60.48-10.038 6.742-22.044 11.365-34.989 12.949 9.518 9.912 1.011 21.137-9.555 29.987zM365.984 430.208c0 10.912 9.184 19.776 19.84 19.776h26.368c10.944 0 19.808-9.184 19.808-19.776-0.107-10.897-8.912-19.701-19.799-19.808l-26.409-0c-10.883 0.125-19.67 8.924-19.776 19.799zM365.984 320.192c0 10.944 9.184 19.808 19.84 19.808h26.368c10.944 0 19.808-9.184 19.808-19.808-0.107-10.897-8.912-19.701-19.799-19.808l-26.409-0c-10.894 0.126-19.687 8.942-19.776 19.833zM476 430.208c0 10.912 8.896 19.776 19.52 19.776h180.96c10.94 0 19.808-8.868 19.808-19.808s-8.868-19.808-19.808-19.808l-180.96 0.032c-10.802 0.197-19.486 8.983-19.52 19.805zM476 320.192c0 10.944 8.896 19.808 19.52 19.808h180.96c10.784 0 19.52-9.184 19.52-19.808 0-0.010 0-0.022 0-0.034 0-10.832-8.709-19.63-19.506-19.774l-180.974-0c-10.813 0.198-19.504 9.001-19.52 19.839zM365.984 210.208c0 10.912 9.184 19.808 19.84 19.808h26.368c10.944 0 19.808-9.216 19.808-19.84-0.125-10.883-8.924-19.67-19.799-19.776l-26.409-0c-10.883 0.125-19.67 8.924-19.776 19.799zM476 210.208c0 10.912 8.896 19.808 19.52 19.808h180.96c10.784 0 19.52-9.216 19.52-19.84 0-0 0-0.001 0-0.002 0-10.832-8.709-19.63-19.506-19.774l-180.974-0c-10.802 0.197-19.486 8.983-19.52 19.805z"  horiz-adv-x="1024" />

    
    <glyph glyph-name="liushuizhang" unicode="&#58885;" d="M345.088 357.824v28.8h-39.424c-9.698 0.089-17.539 7.909-17.664 17.589-0 0.011-0 0.011-0 0.011 0 9.72 7.88 17.6 17.6 17.6 0.023 0 0.045-0 0.067-0l17.053 0-23.264 27.712c-2.602 3.074-4.184 7.083-4.184 11.462 0 5.387 2.394 10.216 6.177 13.478 3.076 2.511 7.017 4.020 11.31 4.020 5.469 0 10.365-2.45 13.652-6.312l33.685-40.153c1.507-1.749 2.625-3.875 3.196-6.216-0.095 6.222 1.804 8.176 4.054 9.634l29.774 36.71c3.308 3.878 8.199 6.322 13.66 6.322 4.284 0 8.217-1.503 11.301-4.012 7.391-6.31 8.287-17.478 2.015-24.934l-23.296-27.712h23.52c9.76 0 17.696-8.192 17.696-17.6 0-0 0-0 0-0 0-9.72-7.88-17.6-17.6-17.6-0.034 0-0.067 0-0.101 0l-44.027-0v-28.8h44.032c9.76 0 17.696-8.192 17.696-17.6 0-0 0-0 0-0 0-9.72-7.88-17.6-17.6-17.6-0.034 0-0.067 0-0.101 0l-44.027-0v-23.168c0-0 0-0 0-0 0-9.72-7.88-17.6-17.6-17.6-9.72 0-17.6 7.88-17.6 17.6 0 0 0 0 0 0v23.168h-39.424c-9.698 0.089-17.539 7.909-17.664 17.589-0 0.011-0 0.011-0 0.011 0 9.72 7.88 17.6 17.6 17.6 0.023 0 0.045-0 0.067-0l39.421 0zM725.888 736v-177.952c0 0 0 0 0 0 49.14 0 88.976 39.836 88.976 88.976 0 49.14-39.836 88.976-88.976 88.976-0 0-0 0-0 0h-445.152c-49.023-0.073-88.736-39.831-88.736-88.864 0-0.056 0-0.113 0-0.169l-0-544.855c0-6.4 4.032-14.176 9.056-17.856l63.84-46.88c4.943-3.355 11.041-5.356 17.606-5.356 6.765 0 13.033 2.124 18.174 5.743l68.86 52.413c0.736 0.544 1.44 0.384 2.016 0l71.68-52.8c9.888-7.264 25.792-7.168 35.52 0.32l68.256 52.48c0.704 0.544 1.408 0.384 1.984 0l70.944-52.8c9.76-7.264 25.696-7.168 35.552 0.32l61.6 46.56c5.226 4.536 8.575 11.117 8.791 18.484l-0.023 588.78c24.566 0 44.48-19.914 44.48-44.48 0-24.566-19.914-44.48-44.48-44.48v88.96l0.032 44.48zM236.608 576v64.256s-2.656 54.144 49.056 50.752c25.344-3.648 41.664-22.24 39.904-50.72-5.472-31.072-34.56-38.304-44.192-38.304-36.384-4.48-22.4-43.936 0-43.936h400.16v-437.824c-0.283-4.245-2.298-7.97-5.338-10.51l-33.478-26.162c-1.464-1.083-3.304-1.733-5.297-1.733-1.895 0-3.653 0.588-5.101 1.593l-57.57 41.005c-14.56 10.336-38.112 10.4-52.352 0.32l-58.56-41.344c-1.494-1.005-3.333-1.604-5.312-1.604s-3.818 0.599-5.346 1.625l-57.374 41.002c-14.464 10.336-37.728 10.4-52.16 0l-57.024-41.024c-1.435-0.938-3.192-1.495-5.080-1.495-1.989 0-3.833 0.619-5.351 1.676l-34.401 26.412c-3.050 2.656-5.004 6.501-5.135 10.806l0.015 455.21h-0.064zM370.112 647.040c0 26.976-12.256 44.48-12.256 44.48h368v-88.96h-368s12.256 17.472 12.256 44.48zM499.968 454.4c0 9.728 7.872 17.6 17.792 17.6h96.416c9.824 0 17.792-8.16 17.792-17.6 0-9.728-7.872-17.6-17.792-17.6h-96.416c-9.738 0.053-17.631 7.879-17.792 17.586zM499.968 338.336c0 9.728 7.872 17.6 17.792 17.6h96.416c9.824 0 17.792-8.16 17.792-17.6 0-9.728-7.872-17.6-17.792-17.6h-96.416c-9.738 0.053-17.631 7.879-17.792 17.586zM282.624 222.272c0 9.728 8 17.6 17.44 17.6h317.12c9.6 0 17.44-8.16 17.44-17.6 0-9.728-8-17.6-17.472-17.6h-317.056c-9.623 0.161-17.37 7.965-17.44 17.595l-0.032 0.005z"  horiz-adv-x="1024" />

    
    <glyph glyph-name="shoufeiguanli" unicode="&#58887;" d="M199.584 458.336v-351.936c0-14.624 11.808-26.432 26.336-26.432h572.16c0.010-0 0.021-0 0.032-0 14.51 0 26.272 11.762 26.272 26.272 0 0.056-0 0.112-0.001 0.169l0 351.927c0 0.019 0 0.042 0 0.064 0 14.54-11.769 26.332-26.301 26.368l-572.163 0c-0.010 0-0.021 0-0.032 0-14.51 0-26.272-11.762-26.272-26.272 0-0.056 0-0.112 0.001-0.169zM160 458.336c0 36.48 29.344 66.016 65.92 66.016h572.16c36.416 0 65.92-29.536 65.92-66.016v-351.936c0-36.48-29.344-66.048-65.92-66.048h-572.16c-36.411 0.018-65.92 29.539-65.92 65.952 0 0.034 0 0.068 0 0.101l-0 351.931zM727.84 540.416c-2.505 2.68-4.175 6.169-4.577 10.034l21.409-24.466 11.072 10.272c4.326 4.026 7.024 9.752 7.024 16.109 0 5.833-2.272 11.135-5.978 15.070l-149.942 160.789c-4.046 4.317-9.783 7.006-16.148 7.006-5.79 0-11.061-2.226-15.003-5.868l-218.609-203.858 57.856-0.224 174.912 163.104 137.984-147.968zM521.28 679.648l-81.184 52.736c-3.389 2.277-7.561 3.635-12.050 3.635-7.629 0-14.342-3.92-18.235-9.856l-130.387-200.787 47.36 0.192 106.496 164.032 58.336-37.984 29.664 28.032zM699.008 299.968c0.326-0.010 0.709-0.016 1.094-0.016 20.66 0 37.408 16.748 37.408 37.408 0 20.66-16.748 37.408-37.408 37.408-0.385 0-0.768-0.006-1.15-0.017-20.128-0.608-36.258-17.115-36.258-37.391 0-20.275 16.13-36.783 36.258-37.391zM699.008 260.352c-42.53-0-77.008 34.478-77.008 77.008s34.478 77.008 77.008 77.008c42.53 0 77.008-34.478 77.008-77.008 0-42.53-34.478-77.008-77.008-77.008z"  horiz-adv-x="1024" />

    
    <glyph glyph-name="pingzheng" unicode="&#58953;" d="M199.584 595.904v-439.808c0-2.496 2.016-4.48 4.48-4.48h615.904c2.496 0 4.448 1.92 4.448 4.48v439.808c0 2.474-2.006 4.48-4.48 4.48 0 0 0 0 0 0h-615.872c-0.019 0-0.042 0-0.065 0-2.421 0-4.384-1.963-4.384-4.384 0-0.034 0-0.068 0.001-0.102zM160 595.904c0 24.32 19.552 44.096 44.032 44.096h615.936c24.32 0 44.032-19.744 44.032-44.096v-439.808c0-24.32-19.552-44.096-44.032-44.096h-615.936c-24.32 0-44.032 19.744-44.032 44.096v439.808zM595.616 283.584h118.784v184.832h-118.784v-184.8zM556 485.952c0 12.16 9.824 22.048 21.952 22.048h154.112c12.139-0.073 21.952-9.93 21.952-22.080 0-0-0-0-0-0l0-219.84c0-12.192-9.824-22.080-21.952-22.080h-154.144c-12.139 0.073-21.952 9.93-21.952 22.080 0 0 0 0 0 0l-0 219.84zM269.984 488.192c0 10.944 9.024 19.808 19.712 19.808h158.592c10.88 0 19.712-9.184 19.712-19.808-0.036-10.892-8.828-19.718-19.704-19.808l-158.6-0c-10.874 0.144-19.642 8.957-19.712 19.834zM269.984 378.208c0 10.912 9.024 19.808 19.712 19.808h158.592c10.88 0 19.712-9.216 19.712-19.84-0.054-10.878-8.84-19.686-19.704-19.776l-158.6-0c-10.863 0.143-19.624 8.939-19.712 19.801zM269.984 268.192c0 10.944 9.024 19.808 19.712 19.808h158.592c10.88 0 19.712-9.184 19.712-19.808-0.036-10.892-8.828-19.718-19.704-19.808l-158.6-0c-10.874 0.144-19.642 8.957-19.712 19.834z"  horiz-adv-x="1024" />

    
    <glyph glyph-name="shuiwuguanli" unicode="&#58888;" d="M531.936 546.912l156.48-32.896-0.256-136.576-156.48 32.896 0.256 136.576z m35.104-43.36l-0.128-64.64 86.144-18.112 0.128 64.64-86.144 18.112z m-38.72 76.48V640l69.824-16.704v-60.8l-69.856 17.536z m158.88-37.984l-71.744 17.984V621.248l40.896-10.176c17.056-4.256 30.848-21.92 30.848-39.776v-29.248z m-124.512-157.824v-253.632c-22.08-2.272-32.48-2.528-32.48-2.528V392.64l32.48-8.384z m57.28-11.072v-200.48l36.8 4.512v191.168l31.936-8.704s-1.024-192.96 0-198.656c-54.08-23.168-102.144-28.352-102.144-28.352v248.704l33.44-8.192z m-267.52-211.2v254.304l34.368 13.12v-285.696s-20.736 10.816-34.368 18.272z m101.024 309.888v-340.864a438.72 438.72 0 0 0-37.024 7.168V464.832l-64.448-15.04v39.552l64.448 14.016v55.04L352 544.32v17.184c0 17.664 13.696 35.68 30.976 40.384l129.696 35.328v-58.048l-59.2-11.808v-56.8l59.2 11.904v-37.632l-59.2-12.96z m59.744-22.688V128c-19.84 0.192-34.4 2.048-34.4 2.048V442.24l34.4 6.912zM512 71.616c172.544 0 312.384 139.84 312.384 312.384S684.544 696.384 512 696.384 199.616 556.544 199.616 384s139.84-312.384 312.384-312.384zM512 32C317.6 32 160 189.6 160 384S317.6 736 512 736s352-157.6 352-352-157.6-352-352-352z"  horiz-adv-x="1024" />

    
    <glyph glyph-name="tongjibaobiao" unicode="&#58889;" d="M204 156v461.984c-0.072 12.13-9.886 21.944-22.010 22.016-0.016 0-0.027 0-0.038 0-12.124 0-21.952-9.828-21.952-21.952 0-0.023 0-0.045 0-0.068l-0-483.965c0-11.936 9.856-22.016 22.016-22.016h660.064c0.019-0 0.042-0 0.065-0 12.071 0 21.856 9.785 21.856 21.856 0 0.056-0 0.113-0.001 0.169 0 0.010 0 0.033 0 0.055 0 12.106-9.814 21.92-21.92 21.92-0 0-0-0-0-0l-638.080 0zM688 507.84c-0.010 0.25-0.016 0.544-0.016 0.839 0 12.159 9.857 22.016 22.016 22.016 12.159 0 22.016-9.857 22.016-22.016 0-0.295-0.006-0.589-0.017-0.881l0.001-307.798h-44v307.84zM563.328 376.064c0 12.096 9.76 21.952 22.016 21.952 12.16 0 21.984-9.568 21.984-21.952v-176.064h-44v176.064zM438.656 441.952c0 12.15 9.85 22 22 22s22-9.85 22-22v-241.952h-44v241.952zM313.984 310.208c-0.010 0.25-0.016 0.544-0.016 0.839 0 12.159 9.857 22.016 22.016 22.016 12.159 0 22.016-9.857 22.016-22.016 0-0.295-0.006-0.589-0.017-0.881l0.001-110.166h-43.968v110.208h-0.032z"  horiz-adv-x="1024" />

    
    <glyph glyph-name="xitongshezhi" unicode="&#58890;" d="M787.744 384c0 8.224-0.512 16.32-1.312 24.416l64.128 48.96c13.92 10.944 17.472 29.856 8.576 44.8l-68.416 115.52a36.864 36.864 0 0 1-44.8 15.2l-75.2-29.504a272.032 272.032 0 0 1-43.072 24.448l-11.392 78.4c-2.688 16.96-18.112 29.76-35.84 29.76H443.52a35.84 35.84 0 0 1-35.872-30.016l-11.36-78.144c-14.912-6.72-29.344-14.944-43.136-24.448L277.856 632.96c-16.256 6.08-35.904-0.64-44.576-15.296l-68.416-115.52c-8.896-15.04-5.312-33.92 8.8-44.992l63.872-48.768c-0.8-8.032-1.28-16.192-1.28-24.416s0.48-16.384 1.28-24.416l-64.224-48.96c-13.76-11.008-17.344-29.856-8.448-44.736l68.48-115.616c8.704-14.624 27.68-21.664 44.8-15.104l75.136 29.472a272.32 272.32 0 0 1 43.072-24.416l11.392-78.496c2.816-17.248 17.92-29.728 35.84-29.728h136.8c17.728 0 33.12 12.8 35.904 30.016l11.36 78.176c14.88 6.72 29.312 14.912 43.072 24.448l75.36-29.632a37.088 37.088 0 0 1 44.64 15.296l68.288 115.456c8.96 14.912 5.504 33.792-8.736 45.184l-63.84 48.64c0.8 8.064 1.28 16.192 1.28 24.416z m-112.608-181.12a19.52 19.52 0 0 1-19.008-2.528 235.648 235.648 0 0 0-53.44-30.272 18.752 18.752 0 0 1-11.616-14.56l-12.544-86.496-132.864-1.92-12.8 88.416a18.72 18.72 0 0 1-11.648 14.56 237.184 237.184 0 0 0-53.44 30.272 19.84 19.84 0 0 1-18.944 2.496L266.624 168.64l-69.12 113.184 72.256 55.04a18.304 18.304 0 0 1 7.136 16.96A218.56 218.56 0 0 0 274.624 384c0 10.24 0.896 20.256 2.24 30.112a18.112 18.112 0 0 1-7.168 16.96l-71.488 52.704 65.44 114.784 85.12-33.408c6.336-2.528 13.568-1.568 18.976 2.496a240.576 240.576 0 0 0 53.568 30.368 18.656 18.656 0 0 1 11.584 14.528l10.656 88.32h134.72l12.832-88.384a18.624 18.624 0 0 1 11.648-14.528c18.56-7.488 36.576-17.696 53.44-30.304a19.84 19.84 0 0 1 19.04-2.56l82.176 34.176 69.184-113.088-72.32-55.104a18.24 18.24 0 0 1-7.168-16.896c1.312-9.92 2.272-20 2.272-30.208 0-10.24-0.928-20.288-2.24-30.208a18.24 18.24 0 0 1 7.168-16.896l71.456-52.64-65.44-114.784-85.184 33.44zM368.512 384c0-76.992 64.384-139.68 143.52-139.68 79.168 0 143.488 62.656 143.488 139.68s-64.352 139.68-143.488 139.68-143.52-62.656-143.52-139.68z m38.4 0c0 56.64 47.168 102.624 105.12 102.624 57.984 0 105.12-46.048 105.12-102.624 0-56.576-47.2-102.624-105.12-102.624-57.952 0-105.12 46.016-105.12 102.624z"  horiz-adv-x="1024" />

    
    <glyph glyph-name="zhangbu" unicode="&#59108;" d="M302.016 76.032c0-0.096 461.92-0.032 461.92-0.032 0.128 0 0.064 615.968 0.064 615.968 0 0.096-461.92 0.032-461.92 0.032-0.128 0-0.064-615.968-0.064-615.968zM302.080 736h461.856c24.32 0 44.064-19.552 44.064-44.032v-615.936c0-24.32-19.584-44.032-44.064-44.032h-461.856c-24.32 0-44.064 19.552-44.064 44.032v615.936c0 24.32 19.552 44.032 44.064 44.032zM192 516c0 12.16 9.952 22.016 22.304 22.016h131.392c0.067 0.001 0.145 0.001 0.224 0.001 12.172 0 22.044-9.85 22.080-22.014 0-12.163-9.952-22.019-22.304-22.019h-131.392c-0.067-0.001-0.145-0.001-0.224-0.001-12.184 0-22.062 9.868-22.080 22.047zM522.016 449.984v30.816h-48.512c-9.643 0.143-17.416 7.95-17.504 17.593-0 9.735 7.552 17.607 17.504 17.607h37.344l-43.488 51.84c-2.579 3.046-4.146 7.019-4.146 11.359 0 5.392 2.42 10.218 6.233 13.452 3.073 2.531 7.017 4.053 11.316 4.053 5.425 0 10.284-2.424 13.553-6.247l43.54-51.864 43.52 51.84c3.289 3.83 8.137 6.241 13.547 6.241 4.282 0 8.211-1.51 11.284-4.026 3.818-3.231 6.245-8.064 6.245-13.464 0-4.332-1.562-8.3-4.155-11.369l-43.498-51.814h49.696c9.664 0 17.504-8.16 17.504-17.6 0-9.728-7.552-17.6-17.504-17.6h-57.28v-30.816h57.28c9.664 0 17.504-8.16 17.504-17.6 0-9.696-7.552-17.6-17.504-17.6h-57.28v-35.104c-0.089-9.698-7.909-17.539-17.589-17.664-0.011-0-0.011-0-0.011-0-9.72 0-17.6 7.88-17.6 17.6 0 0.023 0 0.045 0 0.067l-0 35.133h-48.512c-9.643 0.143-17.416 7.95-17.504 17.593-0 9.703 7.552 17.607 17.504 17.607h48.48zM192 273.984c0 12.16 9.952 22.016 22.304 22.016h131.392c0.067 0.001 0.145 0.001 0.224 0.001 12.172 0 22.044-9.85 22.080-22.014 0-12.163-9.952-21.987-22.304-21.987h-131.392c-0.067-0.001-0.145-0.001-0.224-0.001-12.172 0-22.044 9.85-22.080 22.014zM434.016 256.384c0 9.72 7.88 17.6 17.6 17.6 0 0 0 0 0 0h184.768c9.72 0 17.6-7.88 17.6-17.6s-7.88-17.6-17.6-17.6h-184.768c-9.677 0.107-17.494 7.924-17.6 17.591zM434.016 190.4c0 9.72 7.88 17.6 17.6 17.6 0 0 0 0 0 0l184.768-0c9.72 0 17.6-7.88 17.6-17.6s-7.88-17.6-17.6-17.6h-184.768c-9.677 0.107-17.494 7.924-17.6 17.591z"  horiz-adv-x="1024" />

    
    <glyph glyph-name="bofangshipin" unicode="&#59152;" d="M512 103.616c172.544 0 312.384 139.84 312.384 312.384s-139.84 312.384-312.384 312.384-312.384-139.84-312.384-312.384 139.84-312.384 312.384-312.384zM512 64c-194.4 0-352 157.6-352 352s157.6 352 352 352 352-157.6 352-352-157.6-352-352-352zM646.72 440.128c29.536-19.392 29.312-51.008 0-70.272l-188.576-123.712c-29.568-19.392-53.536-6.592-53.536 28.928v259.84c0 35.392 24.192 48.192 53.536 28.928l188.544-123.712z"  horiz-adv-x="1024" />

    
    <glyph glyph-name="chaxun" unicode="&#58881;" d="M721.472 246.144c36.204 49.888 57.916 112.341 57.92 179.864-0.032 170.952-138.944 309.992-309.728 309.992-170.784 0-309.664-139.040-309.664-310.016 0-170.976 138.88-310.048 309.696-310.048 66.56 0 128.16 21.344 178.688 57.28l132.384-132.544c10.016-10.048 31.104-12.16 41.184-2.144l36.48 36.544c10.016 10.144 5.312 28.576-4.736 38.72l-132.224 132.352zM211.52 425.984c0 142.432 115.776 258.336 258.080 258.336s258.080-115.904 258.080-258.336c0-142.464-115.776-258.368-258.080-258.368-142.304 0-258.080 115.904-258.080 258.368z"  horiz-adv-x="1024" />

    
    <glyph glyph-name="changyonggongnengshoucang" unicode="&#58882;" d="M861.376 473.536c-6.267 18.491-22.35 32.038-41.886 34.533l-181.826 27.899-79.68 170.656c-8.272 17.474-25.75 29.35-46.005 29.376-20.254-0.027-37.748-11.908-45.903-29.084l-79.74-170.916-183.2-28.16c-24.589-4.054-43.116-25.156-43.116-50.585 0-13.85 5.496-26.416 14.425-35.637l134.227-138.322-31.136-191.936c-3.136-19.296 4.992-38.72 20.896-50.016 8.147-5.831 18.314-9.324 29.296-9.324 9.015 0 17.48 2.353 24.814 6.479l159.458 88.636 159.744-88.768c7.085-3.99 15.554-6.34 24.572-6.34 10.988 0 21.161 3.49 29.471 9.421 15.717 11.191 23.845 30.615 20.709 49.911l-31.168 191.936 134.272 138.368c8.93 9.219 14.434 21.802 14.434 35.671 0 5.795-0.961 11.366-2.732 16.562zM689.856 314.816c-9.521-9.801-15.392-23.193-15.392-37.956 0-3.083 0.256-6.107 0.748-9.050l33.076-203.809-169.856 94.368c-7.534 4.264-16.546 6.776-26.144 6.776-9.598 0-18.61-2.512-26.413-6.916l-169.587-94.228 33.12 204.16c0.45 2.63 0.706 5.66 0.706 8.749 0 14.753-5.859 28.137-15.376 37.953l-142.738 147.122 194.816 29.952c18.96 3.016 34.436 15.51 41.6 32.387l83.872 179.677 84.704-181.44c7.68-16.416 22.944-27.904 40.768-30.624l194.848-29.952-142.784-147.136z"  horiz-adv-x="1024" />

    
    <glyph glyph-name="denglu-yonghu" unicode="&#58937;" d="M500 401.6c81.411 0 147.408 65.997 147.408 147.408s-65.997 147.408-147.408 147.408c-81.411 0-147.408-65.997-147.408-147.408 0-81.411 65.997-147.408 147.408-147.408zM429.28 375.84c-68.704 28.711-116.104 95.364-116.104 173.088 0 103.23 83.614 186.931 186.811 187.072 0.037 0 0.064 0 0.091 0 103.282 0 187.008-83.726 187.008-187.008 0-77.812-47.523-144.524-115.129-172.695 134.763-32.425 236.043-154.537 236.043-300.297 0-7.872-0.32-15.648-0.864-23.36 0 0-0.64-20.64-21.12-20.64s-18.368 23.616-18.368 23.616c0.497 6.122 0.78 13.253 0.78 20.45 0 148.242-120.174 268.416-268.416 268.416-148.242 0-268.416-120.174-268.416-268.416 0-7.084 0.274-14.104 0.813-21.050s0.103-23.016-19.193-23.016-20.384 21.024-20.384 21.024c-0.53 6.819-0.832 14.767-0.832 22.785 0 0.067 0 0.134 0 0.202-0 145.75 101.248 267.862 237.28 299.83z"  horiz-adv-x="1024" />

    
    <glyph glyph-name="denglu-mima" unicode="&#58938;" d="M295.616 342.112v-308.224c0-14.464 11.84-26.304 26.56-26.304h439.648c14.752 0 26.56 11.776 26.56 26.304v308.192c-0.091 14.547-11.904 26.304-26.464 26.304-0.034 0-0.068-0-0.102-0l-439.643 0c-0.057 0-0.125 0.001-0.192 0.001-14.54 0-26.332-11.769-26.368-26.301zM256 342.112c0 36.384 29.536 65.888 66.176 65.888h439.648c36.544 0 66.176-29.568 66.176-65.888v-308.224c-0.055-36.401-29.576-65.888-65.984-65.888-0.068 0-0.135 0-0.203 0l-439.638-0c-0.038-0-0.083-0-0.128-0-36.421 0-65.957 29.48-66.048 65.879l-0 308.201zM696 408.416v109.504c0 0.038 0 0.083 0 0.128 0 85.052-68.948 154-154 154-85.007 0-153.927-68.875-154-153.865l-0-109.319h39.616v109.312c1.582 61.969 52.193 111.601 114.397 111.601 62.294 0 112.962-49.775 114.401-111.723l0.002-109.574 39.584-0.064zM541.984 104.384c3.84 0 4.352 0.416 5.696 4.256 1.312 3.776 1.76 8.416 1.664 11.648l-0.064 1.568v68.384l12.928 7.68c11.801 6.99 19.589 19.658 19.589 34.145 0 21.844-17.708 39.552-39.552 39.552-0.081 0-0.161-0-0.242-0.001-0.040 0-0.102 0-0.164 0-21.862 0-39.584-17.722-39.584-39.584 0-14.614 7.919-27.378 19.7-34.235l13.309-7.717v-41.376c0-20.16 0-20.16-0.064-28.96-0.128-3.168 0.288-7.712 1.504-11.392 1.28-3.712 1.6-3.968 5.312-3.968zM541.984 77.984c-36.64 0-33.12 43.84-33.12 43.84v53.088c-19.808 11.634-32.896 32.833-32.896 57.088 0 36.442 29.542 65.984 65.984 65.984 0.022 0 0.045-0 0.067-0 0.005 0 0.016 0 0.026 0 36.442 0 65.984-29.542 65.984-65.984 0-24.033-12.848-45.065-32.051-56.602l-0.298-53.542s2.976-43.872-33.664-43.872z"  horiz-adv-x="1024" />

    
    <glyph glyph-name="dingyuehejifei" unicode="&#58943;" d="M592.288 550.72l-61.76-135.84h-12.352l-61.76 135.872h-37.056l61.76-135.872h-61.76v-37.056h86.464v-61.76h-86.464v-37.056h86.464v-61.76h37.056v61.76h86.464v37.056h-86.464v61.76h86.464v37.056h-61.76l61.76 135.872h-37.056zM512 736c-194.4 0-352-157.6-352-352s157.6-352 352-352 352 157.6 352 352-157.6 352-352 352zM512 69.056c-173.952 0-314.944 140.992-314.944 314.944 0 173.952 140.992 314.944 314.944 314.944 173.952 0 314.944-140.992 314.944-314.944 0-173.952-140.992-314.944-314.944-314.944z"  horiz-adv-x="1024" />

    
    <glyph glyph-name="guanyuwomen" unicode="&#58942;" d="M512 71.616c0.009-0 0.021-0 0.032-0 172.507 0 312.352 139.845 312.352 312.352 0 0.011-0 0.023-0 0.034 0 0.008 0 0.019 0 0.030 0 172.507-139.845 312.352-312.352 312.352-0.011 0-0.023-0-0.034-0-0.008 0-0.019 0-0.030 0-172.507 0-312.352-139.845-312.352-312.352 0-0.011 0-0.023 0-0.034-0-0.008-0-0.019-0-0.030 0-172.507 139.845-312.352 312.352-312.352 0.011 0 0.023 0 0.034 0zM512 32c-194.4 0-352 157.6-352 352s157.6 352 352 352 352-157.6 352-352-157.6-352-352-352zM430.336 414.4h197.504c16.704 0 32.768 12.512 40.864 28.096l-54.496-0.128h-164.448c-19.168 0-35.68 11.936-35.68 26.976l-0.096 51.904c0.64 17.152 11.52 26.048 35.84 26.592l164.32 0.032c20.96-1.568 30.496-10.368 31.104-26.368v-11.136l-198.208-0.064v-27.936l1.888-0.064h224.096v52.032c0 10.496-19.904 41.6-43.712 41.6h-6.88v0.064l-18.24-0.032-18.144 0.032v-0.064l-156.128-0.288c-23.776 0-43.744-31.072-43.744-41.6v-78.304c-0.736-12.928 20.352-41.344 44.16-41.344zM694.336 340.256c0.064 5.536-7.488 24.064-21.024 35.2-6.484 5.094-14.586 8.405-23.427 9.074l-262.045-0.53v-12.64c-2.685-5.55-6.762-10.064-11.785-13.203l-7.767-9.005-0.128-0.16 20.032-20.192 0.128 0.128 13.056 13.152c4.64 4.672 8 9.344 10.496 14.72l44.48-0.128c-1.6-10.88-15.36-85.76-104.352-140.288 5.952-8.448 14.72-22.656 14.72-22.656s95.2 40.064 116.032 162.944h63.36c-1.984-29.536-14.464-84.928-69.888-140.288 5.76-7.872 18.432-23.584 18.432-23.584s72 55.136 78.592 163.872h74.624c15.616-5.056 18.656-21.088 18.656-21.088l-0.064-46.368h0.032v-45.44c0-6.4-2.656-12.512-7.392-16.832-4.512-4.64-10.656-6.304-18.048-6.304h-18.656v-28.64h18.656c7.776 0 14.368 1.28 20.928 4.224 12.32 5.44 22.144 14.72 27.904 27.328 2.848 5.863 4.512 12.753 4.512 20.031 0 0.045-0 0.090-0 0.136l0 50.617c0 23.104 0 43.52-0.096 45.92h0.032z"  horiz-adv-x="1024" />

    
    <glyph glyph-name="laobanduan" unicode="&#58884;" d="M545.056 519.488c44.352 29.504 74.080 83.104 74.080 144.16-0 92.832-68.672 168.352-153.056 168.352-84.384 0-153.024-75.52-153.024-168.32 0-61.12 29.696-114.688 74.080-144.192-132.16-22.080-227.136-98.784-227.136-192.544 0-111.552 134.464-198.944 306.080-198.944 171.648 0 306.080 87.392 306.080 198.944 0 93.76-94.944 170.464-227.104 192.544zM343.648 666.688c0 74.272 54.912 134.72 122.432 134.72 67.52 0 122.432-60.448 122.432-134.72 0-74.24-54.912-134.656-122.432-134.656-67.52 0-122.432 60.416-122.432 134.688zM190.624 326.976c0 94.4 120.96 168.352 275.456 168.352s275.488-73.92 275.488-168.32c0-94.4-120.992-168.352-275.488-168.352-154.464 0-275.456 73.92-275.456 168.32zM461.76 250.496l-56.896 58.656 21.056 85.152c-3.456 11.424-8.32 35.104 3.072 52.8 5.216 8.032 15.712 17.6 36.16 17.6 20.384 0 31.040-9.536 36.32-17.568 11.584-17.472 7.104-41.536 4.128-52.544l21.696-85.952-65.536-58.176zM441.728 319.84l21.696-22.4 26.496 23.52-18.944 74.976 1.856 5.184c2.624 7.584 4.672 21.376 1.44 26.24-1.568 2.304-6.4 2.656-9.12 2.656-1.696 0-7.264-0.192-8.704-2.4-2.752-4.224-1.12-17.28 2.176-26.176l1.92-5.216-18.816-76.384z"  horiz-adv-x="1024" />

    
    <glyph glyph-name="gerenxinxi" unicode="&#58901;" d="M683.456 566.336c0 0.158 0.001 0.345 0.001 0.532 0 55.52-22.583 105.765-59.064 142.051-36.304 36.499-86.549 59.081-142.069 59.081-0.187 0-0.374-0-0.561-0.001-0.138 0.001-0.337 0.001-0.535 0.001-55.52 0-105.765-22.583-142.051-59.064-36.499-36.304-59.081-86.549-59.081-142.069 0-0.187 0-0.374 0.001-0.561-0-41.731 12.672-81.827 36.608-115.875 3.873-5.454 10.166-8.97 17.28-8.97 11.67 0 21.13 9.46 21.13 21.13 0 4.556-1.442 8.774-3.894 12.225-18.030 25.326-28.852 56.972-28.852 91.145 0 0.131 0 0.262 0 0.394 0.127 87.963 71.436 159.249 159.415 159.34 87.983-0.109 159.273-71.388 159.401-159.348-0.091-88.012-71.395-159.327-159.382-159.436-0.145 0-0.304 0-0.464 0-88.709 0-169.005-36.021-227.059-94.233-58.246-58.072-94.279-138.381-94.279-227.106 0-0.148 0-0.296 0-0.445-0-11.65 9.463-21.113 21.136-21.113 11.673 0 21.136 9.463 21.136 21.136 0 154.112 125.376 279.488 279.52 279.488 0.158-0 0.345-0.001 0.532-0.001 55.52 0 105.765 22.583 142.051 59.064 36.499 36.304 59.082 86.549 59.082 142.069 0 0.198-0 0.396-0.001 0.594zM519.744 302.496c0-11.648 9.44-21.12 21.12-21.12h280.928c11.673 0 21.136 9.463 21.136 21.136s-9.463 21.136-21.136 21.136h-280.928c0 0 0 0 0 0-11.664 0-21.12-9.456-21.12-21.12zM821.792 216h-280.928c-11.664 0-21.12-9.456-21.12-21.12s9.456-21.12 21.12-21.12h280.928c11.664 0 21.12 9.456 21.12 21.12s-9.456 21.12-21.12 21.12zM821.792 108.352h-280.928c-11.664 0-21.12-9.456-21.12-21.12s9.456-21.12 21.12-21.12h280.928c11.664 0 21.12 9.456 21.12 21.12s-9.456 21.12-21.12 21.12z"  horiz-adv-x="1024" />

    
    <glyph glyph-name="huanfu" unicode="&#58903;" d="M851.776 432l-94.848-84.8c-10.56-9.408-24.896-11.072-37.152-6.144v-222.144c0-30.304-24.256-54.912-54.208-54.912h-307.136c-29.981 0.199-54.209 24.55-54.209 54.559 0 0.124 0 0.248 0.001 0.372l-0 223.053c-4.318-2.063-9.385-3.268-14.734-3.268-9.055 0-17.304 3.454-23.501 9.116l-93.893 85.16c-7.456 6.876-12.11 16.694-12.11 27.599 0 9.297 3.383 17.804 8.985 24.357l177.557 209.804c3.392 4 7.552 6.72 11.936 8.672v0.576h37.056c4.992-61.056 54.912-109.216 116.48-109.216 61.536 0 111.488 48.16 116.48 109.216h37.056l-0.032-1.216c3.744-1.92 7.136-6.816 10.144-10.24l179.296-208.896c5.618-6.444 9.044-14.927 9.044-24.211 0-10.874-4.7-20.651-12.18-27.409zM662.080 659.040c-38.912-54.624-77.888-88.992-144.64-88.992h-18.272c-68 0-102.016 44.576-134.496 99.136l-168.32-194.016c-6.56-7.744-5.728-16.064 1.76-22.88l79.744-73.088c3.104-2.836 7.255-4.574 11.811-4.574 4.881 0 9.296 1.994 12.475 5.212l0.002 32.13c0 10.304 8.16 18.592 18.24 18.592 7.296 0 13.44-4.384 16.384-10.656l1.92-7.936v-278.784c0-20.544 16.32-37.184 36.48-37.184h273.984c20.16 0 36.544 16.64 36.544 37.184v278.784l1.12 5.792c2.4 7.36 9.056 12.8 17.12 12.8 10.112 0 18.272-8.32 18.272-18.56v-34.016c3.046-2.516 6.991-4.042 11.292-4.042 4.527 0 8.659 1.69 11.799 4.475l80.525 72.72c7.552 6.816 6.624 13.888-0.032 21.6l-163.712 186.304z"  horiz-adv-x="1024" />

    
    <glyph glyph-name="kuozhan" unicode="&#58897;" d="M512 525.472H160L178.528 544v-296.416L160 266.112h690.88l7.584-10.72-4.064-7.808h-13.12l-26.464 37.44-7.36 10.4 7.104 10.624 34.048 50.656 0.128-20.832-34.048 49.408-7.232 10.496 7.232 10.528 34.048 49.408v-21.024l-34.048 49.408-7.232 10.496 7.232 10.528 26.816 38.88h12.768l4.192-8-7.232-10.528H512zM512 544h352l-34.048-49.408L864 445.184l-34.048-49.408L864 346.4l-34.048-50.688L864 247.584H160V544h352z m-219.264-152.96c10.688 2.816 21.408 5.728 32.128 8.704v51.008h-31.04v14.752h31.04v40.192h16.48v-40.192h29.312v-14.752h-29.312v-46.24c9.12 2.592 18.24 5.28 27.36 8.032l0.448-17.152c-9.344-2.688-18.592-5.376-27.808-8.128v-66.784c0-15.776-7.52-23.712-22.56-23.872-4.352-0.16-11.008-0.16-19.968 0-0.896 5.92-1.92 11.84-3.04 17.792 8.512-0.704 15.104-1.088 19.744-1.088 6.208 0 9.344 3.328 9.344 10.016v58.816a1812.48 1812.48 0 0 1-29.984-9.536l-2.144 18.432z m105.92 65.792v-59.04c0-44.576-11.072-79.776-33.216-105.536a175.552 175.552 0 0 1-14.72 11.744c20.672 24.32 31.04 54.72 31.04 91.2v77.696h62.944a434.368 434.368 0 0 1-17.152 24.768l14.336 8.896c7.072-8.544 13.376-16.864 18.88-24.96l-13.248-8.704h60.16v-16.064h-109.024z m164.16-34.528H598.4v18.88h16.064v-18.88h44.96v18.88h16.064v-18.88h40.576v-14.336H675.52v-23.872h50.784v-14.336h-91.52c6.592-10.688 14.624-19.936 24.128-27.68 11.296 5.44 25.92 13.088 43.968 22.912l9.12-15.84-39.424-16.512c16.224-9.472 35.648-15.616 58.304-18.432-4.48-5.792-8.544-11.296-12.16-16.512-47.488 9.856-81.088 33.856-100.864 72.064h-23.104v-54.496l43.2 13.696a173.696 173.696 0 0 1 0-17.376c-13.184-3.744-26.24-7.968-39.296-12.576-3.328-1.312-8.544-3.712-15.616-7.168l-9.568 13.248c3.488 2.304 5.216 7.296 5.216 14.976v49.696h-25.728c-1.248-29.664-9.6-55.488-25.088-77.504a251.104 251.104 0 0 1-12.352 15.424c15.04 19.52 22.56 51.296 22.56 95.296v93.376h177.152v-57.12h-16.48v7.392H554.56v-28.864c0-12.32-0.256-23.52-0.768-33.664H598.4v23.872h-35.584v14.336z m135.904 59.712H554.56v-21.056h144.16v21.056z m-84.256-97.92h44.96v23.872h-44.96v-23.872z"  horiz-adv-x="1024" />

    
    <glyph glyph-name="qiyegongsi" unicode="&#58944;" d="M329.568 651.008l9.12 3.744c9.152 3.776 19.392 7.552 30.4 11.072 30.592 9.824 61.056 15.776 88.96 16 25.28 0.16 47.040-4.448 64.736-14.336 103.168-57.728 242.176-12.736 271.52 20.768 0-22.208 2.272-329.984 0-332.416-10.16-10.688-22.907-18.821-37.241-23.401-9.319-10.391-53.351-16.535-113.831 2.281-77.28 24-149.568 20.288-204.128-5.664-49.984-23.776-60.48-36.32-53.888-53.216l13.696-33.6c0 38.72 20.928 39.552 56.736 56.608 45.632 21.696 107.84 24.896 176.096 3.68 71.52-22.24 127.744-14.4 168.48 12.896 14.72 9.888 24.192 19.968 29.088 27.392l2.688 4.064v319.168c0.001 0.267 0.001 0.582 0.001 0.898 0 9.566-0.477 19.021-1.409 28.342-1.089 10.504-2.913 19.592-6.209 26.344-8.096 16.608-28.16 19.84-41.44 4.352-60.512-70.56-152.928-78.944-241.472-29.408-23.936 13.408-52.192 19.36-83.712 19.136-32.384-0.224-66.496-6.88-100.512-17.792-12.032-3.872-23.2-8-33.28-12.16-6.080-2.528-10.56-4.512-13.056-5.728l-1.984-1.088-74.464-33.12 13.056-32s47.2 25.472 82.048 37.184zM192 657.28l254.88-625.28 32.48 12.672-254.88 625.28-32.48-12.608z"  horiz-adv-x="1024" />

    
    <glyph glyph-name="wodeyijia" unicode="&#58914;" d="M846.112 57.6h-668.192c-9.317 0.704-16.609 8.436-16.609 17.872s7.293 17.168 16.549 17.868l668.22 0.004c0 0 0 0 0 0 9.87 0 17.872-8.002 17.872-17.872 0-9.87-8.002-17.872-17.872-17.872-0 0-0 0-0 0zM369.28 569.344h-66.24c-9.548 0.417-17.132 8.259-17.132 17.872s7.583 17.455 17.094 17.871l66.277 0.001c0.226 0.010 0.49 0.016 0.756 0.016 9.879 0 17.888-8.009 17.888-17.888 0-9.879-8.009-17.888-17.888-17.888-0.266 0-0.531 0.006-0.794 0.017zM512.8 569.344h-66.208c-9.87 0-17.872 8.002-17.872 17.872s8.002 17.872 17.872 17.872h66.24c0.226 0.010 0.49 0.016 0.756 0.016 9.879 0 17.888-8.009 17.888-17.888 0-9.879-8.009-17.888-17.888-17.888-0.266 0-0.531 0.006-0.794 0.017zM670.624 381.76v66.24c0.704 9.317 8.436 16.609 17.872 16.609s17.168-7.293 17.868-16.549l0.004-66.3c0.010-0.226 0.016-0.49 0.016-0.756 0-9.879-8.009-17.888-17.888-17.888-9.879 0-17.888 8.009-17.888 17.888 0 0.266 0.006 0.531 0.017 0.794zM670.624 202.496v66.208c0.704 9.317 8.436 16.609 17.872 16.609s17.168-7.293 17.868-16.549l0.004-66.3c0.010-0.226 0.016-0.49 0.016-0.756 0-9.879-8.009-17.888-17.888-17.888-9.879 0-17.888 8.009-17.888 17.888 0 0.266 0.006 0.531 0.017 0.794zM369.28 410.080h-66.24c-9.548 0.417-17.132 8.259-17.132 17.872s7.583 17.455 17.094 17.871l66.277 0.001c0.226 0.010 0.49 0.016 0.756 0.016 9.879 0 17.888-8.009 17.888-17.888 0-9.879-8.009-17.888-17.888-17.888-0.266 0-0.531 0.006-0.794 0.017zM512.8 410.080h-66.208c-9.87 0-17.872 8.002-17.872 17.872s8.002 17.872 17.872 17.872h66.24c0.226 0.010 0.49 0.016 0.756 0.016 9.879 0 17.888-8.009 17.888-17.888 0-9.879-8.009-17.888-17.888-17.888-0.266 0-0.531 0.006-0.794 0.017zM369.28 250.816h-66.24c-9.548 0.417-17.132 8.259-17.132 17.872s7.583 17.455 17.094 17.871l66.277 0.001c0.226 0.010 0.49 0.016 0.756 0.016 9.879 0 17.888-8.009 17.888-17.888 0-9.879-8.009-17.888-17.888-17.888-0.266 0-0.531 0.006-0.794 0.017zM512.8 250.816h-66.208c-9.87 0-17.872 8.002-17.872 17.872 0 9.87 8.002 17.872 17.872 17.872l66.24-0c9.317-0.704 16.609-8.436 16.609-17.872s-7.293-17.168-16.549-17.868zM201.952 75.456v607.168c-0 29.408 23.968 53.376 53.408 53.376h303.936c29.472 0 53.44-23.936 53.44-53.408v-588.64h-35.776v588.608c0 9.756-7.908 17.664-17.664 17.664h-303.936c-0 0-0 0-0 0-9.738 0-17.632-7.894-17.632-17.632 0-0.011 0-0.022 0-0.034l-0-588.638h-35.808v-18.464zM612.512 569.344h149.504c29.44 0 53.408-23.936 53.408-53.376v-423.296h-35.744v423.296c-0.036 9.735-7.927 17.614-17.662 17.632l-149.506 0v35.744z"  horiz-adv-x="1024" />

    
    <glyph glyph-name="fenxiang" unicode="&#59143;" d="M292 247.616c0.558-0.012 1.215-0.019 1.874-0.019 51.040 0 92.416 41.376 92.416 92.416 0 50.495-40.497 91.531-90.784 92.402-0.543 0.009-1.087 0.014-1.632 0.014-51.040 0-92.416-41.376-92.416-92.416 0-50.381 40.315-91.346 90.445-92.395zM292 208c-72.902 0-132 59.098-132 132 0 72.902 59.098 132 132 132 72.902 0 132-59.098 132-132 0-72.902-59.098-132-132-132zM600 511.616c0.558-0.012 1.215-0.019 1.874-0.019 51.040 0 92.416 41.376 92.416 92.416 0 50.495-40.497 91.531-90.784 92.402-0.543 0.009-1.087 0.014-1.632 0.014-51.040 0-92.416-41.376-92.416-92.416 0-50.381 40.315-91.346 90.445-92.395zM600 472c-72.902 0-132 59.098-132 132s59.098 132 132 132c72.902 0 132-59.098 132-132 0-72.902-59.098-132-132-132zM754.016 71.616c0 0 0 0 0 0 38.881 0 70.4 31.519 70.4 70.4 0 38.881-31.519 70.4-70.4 70.4-0 0-0 0-0 0-38.881-0-70.4-31.519-70.4-70.4 0-38.881 31.519-70.4 70.4-70.4zM754.016 32.032c-1.119-0.041-2.433-0.064-3.752-0.064-60.76 0-110.016 49.256-110.016 110.016 0 60.752 49.242 110.002 109.991 110.016 0.008 0 0.017 0 0.025 0 60.76 0 110.016-49.256 110.016-110.016 0-59.441-47.14-107.871-106.074-109.947zM388.064 431.648c11.456 9.92 99.904 83.2 107.584 90.336 14.976-17.792 28.928-27.456 28.928-27.456l-113.28-95.040s-7.904 15.904-23.232 32.16zM414.4 288c33.824-14.464 213.92-91.072 236.512-100.384-9.472-20.928-9.472-39.040-9.472-39.040l-248.192 105.376s11.904 14.4 21.12 34.048z"  horiz-adv-x="1024" />

    
    <glyph glyph-name="rengongfuwu" unicode="&#58911;" d="M521.6 169.184c100.16 1.472 165.056 55.040 189.696 75.68 31.872-17.28 59.296-42.944 82.24-76.96 22.944-33.984 34.72-68.832 35.264-104.512h-633.6c4.061 43.982 21.331 83.3 47.752 114.652 16.184 22.084 42.072 45.348 70.584 60.964 56.448-41.792 107.872-71.296 208.064-69.824zM512 191.744c-75.712 0-142.816 35.84-198.912 87.36-47.68-24.64-85.088-57.92-112.288-99.968-27.2-42.048-40.8-91.136-40.8-147.136h704c0 56.064-13.76 105.28-41.216 147.584-27.456 42.304-65.6 75.776-114.368 100.352-55.52-52.032-120.16-88.192-196.416-88.192zM285.824 382.944v176.512h-7.488c20.512 44.16 51.84 79.808 93.952 106.88 42.144 27.104 88.704 40.608 139.712 40.608 51.52 0 98.24-13.536 140.096-40.608 41.856-27.072 73.056-62.72 93.568-106.88h-6.656v-176.512c24.96 0 46.144 8.576 63.616 25.696 16.142 15.298 26.186 36.89 26.186 60.829 0 0.462-0.004 0.924-0.011 1.384 0.001 16.539-4.159 31.707-12.479 45.531-10.781 17.791-27.257 31.208-46.859 37.848-6.645 49.704-40.981 94.76-90.325 129.544-49.376 34.816-104.896 52.224-166.72 52.224s-117.408-17.408-166.72-52.224c-49.344-34.784-83.968-79.84-103.936-135.040-18.433-9.879-32.621-25.657-40.233-44.768-2.167-1.408-6.327-16.576-6.327-33.184 0-24.32 8.864-45.024 26.592-62.144 16.049-15.891 38.136-25.709 62.516-25.709 0.533 0 1.065 0.005 1.596 0.014zM512.416 251.104c-48.96 0-90.592 16.832-124.928 50.464-34.304 33.6-51.456 74.24-51.488 121.856 0 47.008 17.6 87.456 52.864 121.376 35.2 33.92 76.416 50.88 123.584 50.88 48.384 0 89.728-16.832 124.064-50.432 34.336-33.632 51.488-74.24 51.488-121.856s-17.152-88.224-51.52-121.856c-34.304-33.632-75.648-50.432-124.032-50.432zM511.552 630.752c-57.984 0-107.616-20.096-148.864-60.32-41.28-40.192-61.92-88.64-61.888-145.216 0-57.216 20.64-106.080 61.888-146.592 41.248-40.512 90.88-60.8 148.864-60.8 58.592 0 108.512 20.288 149.76 60.8 41.28 40.512 61.888 89.376 61.888 146.56 0 56.64-20.64 105.056-61.888 145.28-41.248 40.192-91.168 60.288-149.76 60.288z"  horiz-adv-x="1024" />

    
    <glyph glyph-name="tuichu" unicode="&#58934;" d="M667.968 676.768c94.173-54.945 156.448-155.494 156.448-270.588 0-0.069-0-0.138-0-0.207 0-172.501-139.872-312.373-312.416-312.373-172.544 0-312.384 139.84-312.384 312.384-0 0.062-0 0.136-0 0.21 0 114.777 61.939 215.087 154.215 269.329s18.041 14.396 9.401 28.764-27.84 6.272-27.84 6.272c-105.613-62.036-175.392-175.067-175.392-304.397 0-0.063 0-0.126 0-0.189-0-194.39 157.6-351.99 352-351.99s352 157.6 352 352c0 130.4-70.912 244.224-176.256 305.056 0 0-18.144 5.76-25.92-8.768-7.776-14.496 6.144-25.504 6.144-25.504zM490.016 713.856c-0.020 0.354-0.032 0.769-0.032 1.187 0 12.159 9.857 22.016 22.016 22.016 12.159 0 22.016-9.857 22.016-22.016 0-0.417-0.012-0.832-0.035-1.244l0.003-263.623c0.010-0.25 0.016-0.544 0.016-0.839 0-12.159-9.857-22.016-22.016-22.016-12.159 0-22.016 9.857-22.016 22.016 0 0.295 0.006 0.589 0.017 0.881l-0.001 263.638z"  horiz-adv-x="1024" />

    
    <glyph glyph-name="dianhuazixun" unicode="&#58899;" d="M828.736 173.76c-2.624 3.808-63.712 93.44-102.24 130.080-17.056 16.224-35.68 31.968-58.88 30.336-19.904-1.376-36.48-14.944-55.552-30.688-19.84-16.224-31.776-18.656-36.064-21.056-1.12 0.992-108.64 101.312-138.368 147.584-18.72 29.216-7.552 41.12 43.648 70.016 46.72 26.4 43.776 58.816 33.92 74.624-3.84 4.576-95.040 113.44-138.624 148-10.546 8.356-24.043 13.404-38.719 13.404-1.848 0-3.676-0.080-5.483-0.237-46.261-3.248-91.093-51.312-95.765-56.432-31.040-32.64-70.624-148.928-21.312-269.536 49.376-120.736 142.816-228.736 285.632-330.080 49.376-35.040 101.344-50.976 154.56-47.232 84 5.856 144.768 59.648 161.408 75.904 28.992 28.512 19.68 56.224 11.84 65.312zM349.024 693.664c40-31.68 130.176-139.104 130.72-139.040 1.12-3.136-1.632-11.712-20.064-22.080-12.416-7.104-26.624-15.392-39.36-25.28l-139.744 159.52c15.872 14.272 37.952 29.76 54.72 30.944 0.615 0.073 1.328 0.114 2.051 0.114 4.458 0 8.547-1.577 11.741-4.204zM526.816 110.016c-136.64 96.992-225.728 199.68-272.384 313.664-39.808 97.344-13.536 190.144 7.936 222.848l138.464-157.92c-15.456-19.68-20.704-44.864 0.704-78.272 32.288-50.272 140-150.688 145.824-155.936 2.784-2.24 13.216-9.248 31.616-7.936 5.12 0.32 10.368 1.472 15.744 3.072l133.152-156.96c-21.088-10.88-46.336-19.936-75.072-21.952-42.624-2.976-84.992 10.24-125.984 39.392zM786.56 134.304c-5.76-5.664-18.016-16.64-34.912-27.84l-131.552 154.88c21.527 13.011 39.311 30.077 52.755 50.279-23.155-28.263-8.147-15.943-2.611-15.559 1.728 0.128 7.712-1.504 25.92-18.88 35.456-33.856 96.416-123.072 98.144-125.472 0.192 0 3.488-6.368-7.744-17.408z"  horiz-adv-x="1024" />

    
    <glyph glyph-name="erweima" unicode="&#59142;" d="M199.584 692.16v-242.336c0-2.304 1.92-4.224 4.224-4.224h242.368c2.304 0 4.224 1.92 4.224 4.224v242.336c-0.036 2.312-1.91 4.174-4.223 4.192l-242.337 0c-2.29-0.035-4.14-1.873-4.192-4.156l-0.064-0.004zM160 692.16c0 24.256 19.648 43.84 43.84 43.84h242.336c24.192 0 43.84-19.648 43.84-43.84v-242.336c0-24.212-19.628-43.84-43.84-43.84 0 0 0 0 0 0h-242.336c-0-0-0-0-0-0-24.212 0-43.84 19.628-43.84 43.84 0 0.011 0 0.023 0 0.034l-0 242.302zM199.584 318.208v-242.368c0-2.304 1.92-4.192 4.224-4.192h242.368c2.304 0 4.224 1.92 4.224 4.192v242.368c-0.018 2.326-1.899 4.206-4.222 4.224l-242.338 0c-2.312-0.036-4.174-1.91-4.192-4.223l-0.064-0.001zM160 318.208c0 24.192 19.648 43.84 43.84 43.84h242.336c24.192 0 43.84-19.68 43.84-43.84v-242.368c-0.018-24.198-19.639-43.808-43.84-43.808-0.011 0-0.023 0-0.034 0l-242.302-0c-24.212 0-43.84 19.628-43.84 43.84 0 0 0 0 0 0l-0 242.336zM573.568 692.16v-242.368c0-2.304 1.92-4.224 4.224-4.224h242.368c2.304 0 4.192 1.92 4.192 4.224v242.368c-0.035 2.301-1.892 4.157-4.189 4.192l-242.371 0c-2.304-0.017-4.171-1.862-4.224-4.155zM533.952 692.16c0 24.212 19.628 43.84 43.84 43.84 0 0 0 0 0 0h242.368c24.198-0.018 43.808-19.639 43.808-43.84 0-0-0-0-0-0l0-242.336c0-24.212-19.628-43.84-43.84-43.84 0 0 0 0 0 0h-242.336c-24.212 0-43.84 19.628-43.84 43.84 0 0 0 0 0 0v242.368zM281.024 598.848c0 8.96 6.912 16.16 16.16 16.16h55.68c8.96 0 16.16-6.912 16.16-16.16v-55.68c0.001-0.067 0.002-0.146 0.002-0.225 0-8.801-7.135-15.936-15.936-15.936-0.068 0-0.136 0-0.204 0.001l-55.734-0c-0.067-0.001-0.146-0.002-0.225-0.002-8.801 0-15.936 7.135-15.936 15.936 0 0.068 0 0.136 0.001 0.204l-0 55.702zM281.024 213.888c0 8.928 6.912 16.128 16.16 16.128h55.68c8.96 0 16.16-6.88 16.16-16.128v-55.712c0.001-0.067 0.002-0.146 0.002-0.225 0-8.801-7.135-15.936-15.936-15.936-0.068 0-0.136 0-0.204 0.001l-55.734-0c-0.067-0.001-0.146-0.002-0.226-0.002-8.801 0-15.936 7.135-15.936 15.936 0 0.079 0.001 0.159 0.002 0.238l-0 55.732zM655.008 598.848c0 8.896 6.912 16.128 16.128 16.128h55.712c8.96 0 16.16-6.912 16.16-16.16v-55.68c0.001-0.067 0.002-0.146 0.002-0.226 0-8.801-7.135-15.936-15.936-15.936-0.079 0-0.159 0.001-0.238 0.002l-55.668-0c-0.067-0.001-0.146-0.002-0.225-0.002-8.801 0-15.936 7.135-15.936 15.936 0 0.068 0 0.136 0.001 0.204l-0 55.734zM776 103.872c0 8.896 6.912 16.128 16.128 16.128h55.744c8.896 0 16.128-6.912 16.128-16.128v-55.744c0.001-0.057 0.001-0.125 0.001-0.193 0-8.801-7.135-15.936-15.936-15.936-0.068 0-0.136 0-0.203 0.001l-55.734-0c-0.057-0.001-0.125-0.001-0.193-0.001-8.801 0-15.936 7.135-15.936 15.936 0 0.068 0 0.136 0.001 0.203l-0 55.734zM670.432 186.4v136h-96.832v-270.752c-0.161-10.842-8.954-19.578-19.802-19.648-0.025-0-0.047-0-0.070-0-10.871 0-19.689 8.785-19.744 19.643l-0 290.693c0.018 10.806 8.727 19.572 19.51 19.68l136.97 0c0.002 0 0.004 0 0.006 0 10.94 0 19.808-8.868 19.808-19.808 0-1.062-0.084-2.104-0.244-3.12l0.015-135.664 109.952-0.128v139.008c0 10.88 9.184 19.712 19.808 19.712 10.912 0 19.808-9.024 19.808-19.712v-158.592c-0.077-7.558-4.368-14.096-10.632-17.383-2.867-1.651-6.238-2.612-9.834-2.617l-149.070 0.128c-10.907 0.125-19.716 8.934-19.84 19.83-0 0.938 0.064 1.834 0.192 2.73zM621.984 103.84c0 8.928 6.912 16.16 16.16 16.16h55.712c8.96 0 16.16-6.912 16.16-16.128v-55.744c0.001-0.058 0.001-0.126 0.001-0.194 0-8.801-7.135-15.936-15.936-15.936-0.079 0-0.158 0.001-0.237 0.002l-55.668-0c-0.077-0.001-0.167-0.002-0.257-0.002-8.801 0-15.936 7.135-15.936 15.936 0 0.068 0 0.136 0.001 0.204l-0 55.734z"  horiz-adv-x="1024" />

    
    <glyph glyph-name="tongzhi" unicode="&#58904;" d="M536.48 679.424v-295.2l39.616-0.192V679.424c0 36.224-33.856 58.208-58.656 56.48-79.68-79.808-173.44-175.808-173.44-175.808H204.16c-24.32 0-44.032-19.904-44.032-43.808v-132.256h39.584v132.256c0 2.112 2.112 4.224 4.48 4.224h156.48l11.648 11.904a16137.28 16137.28 0 0 0 42.976 43.872 25950.976 25950.976 0 0 0 95.232 96.512l3.392 3.456 15.904 16c5.216 5.216 6.656-7.936 6.656-12.8z m0-590.848v295.2L576.096 384v-295.392c0-36.224-33.856-58.208-58.656-56.48-79.68 79.808-173.44 175.808-173.44 175.808H204.16c-24.32 0-44.032 19.904-44.032 43.808L160 383.968h39.584l0.128-132.256c0-2.112 2.112-4.224 4.48-4.224h156.48l11.648-11.904a16137.28 16137.28 0 0 1 42.976-43.872 25950.656 25950.656 0 0 1 95.232-96.512l3.392-3.456 15.904-16c5.216-5.216 6.656 7.936 6.656 12.8z m74.624 382.976a114.464 114.464 0 0 0 0.224-219.104c-10.688-3.232-2.688-42.208 11.488-37.888a154.08 154.08 0 0 1-0.32 294.912c-14.08 4.224-22.016-34.752-11.392-37.92z m164.896-107.392c0 10.944 8.768 19.808 19.52 19.808h48.96c10.784 0 19.52-9.184 19.52-19.808a19.68 19.68 0 0 0-19.52-19.808h-48.96a19.872 19.872 0 0 0-19.52 19.808z m-9.28 278.08a19.68 19.68 0 0 0 2.24 27.744l37.504 31.456a19.872 19.872 0 0 0 27.68-2.624c7.04-8.384 6.016-20.8-2.24-27.712l-37.472-31.456a19.872 19.872 0 0 0-27.68 2.624z m22.016-515.488a19.68 19.68 0 0 0 27.68 2.624l37.504-31.456a19.872 19.872 0 0 0 2.24-27.712 19.68 19.68 0 0 0-27.712-2.624l-37.472 31.456a19.872 19.872 0 0 0-2.24 27.712z"  horiz-adv-x="1024" />

    
    <glyph glyph-name="weibo" unicode="&#59145;" d="M702.592 391.808l0.352 3.744c2.72 24.96 7.68 71.424-33.92 102.4l-1.504 1.12-1.664 0.864c-12.48 6.592-26.656 9.824-43.264 9.824-19.328 0-39.104-4.416-58.208-8.64-10.080-2.336-19.84-4.48-29.088-5.92l-0.384 4.32c-2.176 23.968-6.208 68.64-50.464 86.528-15.498 6.398-33.493 10.113-52.355 10.113-0.201 0-0.403-0-0.604-0.001-26.049 0-52.865-6.688-80.001-19.936-115.232-58.176-211.232-186.368-223.36-298.208l-0.128-2.592c0-136.448 143.808-243.296 327.392-243.296 87.52 0 169.76 22.976 231.616 64.704 63.968 43.136 102.208 103.36 107.744 169.6 6.912 82.688-49.696 107.616-92.16 125.44v-0.064zM746.848 270.4c-9.088-108.448-134.4-190.24-291.456-190.24-156.032 0-278.4 85.12-279.36 193.952 10.976 95.2 97.28 208.832 196.8 259.072 20.192 9.856 40 14.88 58.688 14.88 12.384 0 24.128-2.208 34.88-6.56 15.872-6.4 18.464-22.496 20.64-46.304 1.44-16.096 4.48-49.6 35.68-49.6 0.768 0 1.536 0 2.304 0.096 16.736 1.088 33.536 4.8 49.824 8.48 17.344 3.872 33.696 7.552 47.744 7.552 7.776 0 14.080-1.184 19.2-3.52 16.608-13.536 16-33.248 13.408-57.536-1.664-15.584-4.16-39.104 16.992-48.224l9.952-4.16c45.216-18.88 68.64-30.976 64.704-77.888zM707.2 611.84c-13.273 0-24.032-10.759-24.032-24.032s10.759-24.032 24.032-24.032c23.456 0 42.56-18.848 42.56-42.016 0-13.273 10.759-24.032 24.032-24.032 13.273 0 24.032 10.759 24.032 24.032-0.218 49.797-40.636 90.080-90.463 90.080-0.057 0-0.113-0-0.17-0zM675.68 711.968c0-13.28 10.752-24 24-24 95.552 0 173.248-74.816 173.248-166.72 0-13.273 10.759-24.032 24.032-24.032 13.273 0 24.032 10.759 24.032 24.032 0 118.4-99.264 214.752-221.28 214.752 0 0 0 0 0 0-13.273 0-24.032-10.759-24.032-24.032zM481.824 417.504c-22.408-0.050-44.148-2.808-64.941-7.964-48.787-11.652-93.747-37.508-124.243-72.196-32.544-37.024-45.152-79.776-35.456-120.352 15.2-63.808 83.2-106.624 169.152-106.624 22.408 0.050 44.148 2.808 64.941 7.964 48.787 11.684 93.747 37.54 124.243 72.196 32.544 37.024 45.12 79.776 35.456 120.352-15.2 63.808-83.2 106.624-169.152 106.624zM579.424 222.304c-24-27.296-60.128-47.808-101.632-57.696-15.596-3.918-33.503-6.169-51.934-6.177-62.818 0.001-111.97 28.033-121.922 69.761-5.952 24.928 2.848 52.48 24.8 77.408 24 27.296 60.096 47.776 101.632 57.664 15.629 3.937 33.572 6.2 52.043 6.209 62.677-0.001 111.861-28.033 121.813-69.729 5.952-24.96-2.88-52.48-24.8-77.504v0.064zM430.336 280.928c-8.426-0.043-16.406-1.909-23.58-5.223-11.62-5.209-21.284-14.457-26.724-25.817-5.76-12.064-6.144-25.6-0.96-37.12 7.232-16.096 23.584-26.080 42.848-26.080 7.776 0 15.744 1.728 23.040 4.992 12.16 5.44 21.824 14.688 27.264 26.016 5.76 12.096 6.144 25.6 0.96 37.184-7.232 16.064-23.616 26.048-42.848 26.048zM443.328 231.552c-4.258-7.661-12.281-12.774-21.503-12.833-6.369 0.001-11.553 2.753-13.505 7.105-1.792 4.032-0.384 8.16 0.64 10.24 4.264 7.632 12.263 12.725 21.459 12.801 6.317-0.001 11.533-2.721 13.517-7.073 1.792-4.032 0.352-8.16-0.64-10.24z"  horiz-adv-x="1024" />

    
    <glyph glyph-name="weixin" unicode="&#59144;" d="M737.28 178.176l20.832 15.904c1.472 1.12 4.864 3.968 9.536 8.416 8.096 7.68 16.224 16.672 23.776 26.72 20.832 27.648 32.96 57.504 32.96 88.384 0 73.824-76.16 126.464-159.104 133.024l-27.52 2.176-7.488 26.56c-32.032 113.856-112.128 153.024-212.896 153.024-100 0-214.592-62.4-217.76-168.64 0-39.168 14.304-74.208 38.656-104.96 8.736-11.008 18.080-20.608 27.392-28.704 5.344-4.608 9.216-7.552 10.88-8.64l25.504-17.152-9.728-27.488c9.376 4.864 16 8.16 21.632 10.688l15.104 6.816 15.488-5.984c19.808-7.68 71.168-12.544 85.856-7.552l35.296 12.032 14.112-34.528c33.312-81.408 142.144-118.24 227.072-90.656l16.32 5.28 15.040-8.32 2.944-1.6-3.904 15.2zM782.144 162.592s11.008-42.912 15.68-56c0-11.264-7.2-13.76-15.68-11.264-8.48 2.496-20.736 11.264-63.040 34.624-88.064-28.608-229.248-0.768-275.936 113.344-27.68-9.44-89.696-0.896-112.96 8.096-21.76-9.824-76.8-41.024-85.056-43.296-8.224-2.24-13.856 4.8-12.992 12.384 0.864 7.552 22.304 68.064 22.304 68.064s-94.464 63.36-94.464 175.168c5.056 169.568 201.28 208.288 257.376 208.288 56.096 0 203.488-13.024 251.008-181.92 70.528-5.568 195.616-54.688 195.616-172.48 0-92.512-81.856-155.008-81.856-155.008zM465.824 293.408c-6.624 26.336 8 70.656 40.416 106.56 20.733 22.37 48.182 38.251 79.131 44.432-0.761 2.247 25.716 7.566 53.425 7.646-5.133 13.586-10.317 31.282-12.557 39.25-25.6-1.344-52.672-6.464-79.104-16.96-37.733-14.805-68.589-40.316-89.638-72.776-23.578-22.552-35.162-73.112-26.618-119.736 16.544 5.6 0 0 34.944 11.584zM336 496.672c24.32 0 44 14.752 44 32.96 0 18.24-19.712 33.024-44 33.024-24.32 0-44-14.784-44-32.992 0-18.24 19.712-32.992 44-32.992zM490.016 496.672c24.288 0 43.968 14.752 43.968 32.96 0 18.24-19.68 33.024-44 33.024-24.288 0-43.968-14.784-43.968-32.992 0-18.24 19.68-32.992 43.968-32.992h0.032zM588.992 327.264c18.24 0 33.024 11.84 33.024 26.4s-14.784 26.4-33.024 26.4c-18.24 0-32.992-11.84-32.992-26.4 0-14.592 14.784-26.4 32.992-26.4zM720.992 327.264c18.24 0 33.024 11.84 33.024 26.4s-14.784 26.4-33.024 26.4c-18.24 0-32.992-11.84-32.992-26.4 0-14.592 14.784-26.4 32.992-26.4z"  horiz-adv-x="1024" />

    
    <glyph glyph-name="zaixianfuwu" unicode="&#58892;" d="M784.8 464v-158.432c44 0 79.2 35.2 79.2 79.2 0 44.032-35.2 79.232-79.2 79.232zM160 389.184c0-44 35.2-79.232 79.2-79.232v158.432c-0.095 0-0.208 0.001-0.321 0.001-43.564 0-78.88-35.316-78.88-78.88 0-0.113 0-0.225 0.001-0.338zM789.216 274.752c-8.832 4.416-17.6 0-22.016-8.8-39.616-79.2-110.016-136.416-193.6-158.4-8.8 13.184-26.4 26.368-48.384 26.368-30.816 0-52.8-17.6-52.8-39.584 0-22.016 21.984-39.616 52.8-39.616 21.984 0 39.584 8.8 48.384 22.016 101.184 17.6 184.8 83.616 228.8 180.416 0 4.416-4.384 13.216-13.184 17.6zM749.6 569.6c4.384-8.8 13.184-21.984 17.6-30.784 4.384-8.8 13.184-13.216 22.016-8.8 8.768 4.384 13.184 13.184 8.768 21.984-6.807 18.889-18.773 34.539-34.197 45.707-18.571 42.293-66.987 81.909-124.171 108.341-154.016 74.752-343.264 4.352-418.016-154.048-4.416-8.8 0-17.6 8.8-21.984h8.8c8.8 0 13.216 4.384 17.6 8.8 61.6 140.8 233.184 202.432 373.984 136.416 48.416-22.016 92.416-57.216 118.816-105.6z"  horiz-adv-x="1024" />

    
    <glyph glyph-name="xiaoxi" unicode="&#58891;" d="M304.064 262.56l7.456 4.736c6.42 4.674 10.628 12.051 10.941 20.425l-0.029 8.279v9.696c-0.256 64.96 2.304 107.904 12.8 155.968 18.432 84.256 56 138.24 118.336 156.544l12 3.52c7.366 2.688 12.8 9.022 14.164 16.758l1.804 11.466c4.704 29.504 22.496 46.464 43.296 46.464v39.584c-40.48 0-74.624-31.072-82.4-79.808-166.944-49.024-159.584-287.872-159.584-360.192-44.288-28.096-122.592-85.056-77.12-154.048 44.704 0.16 184.128 0.128 319.456 0.096l-0.032 39.616-292.704-0.032c-1.6 23.872 22.976 50.080 71.616 80.928zM745.984 262.56l-7.488 4.736c-6.42 4.674-10.628 12.051-10.941 20.425l0.029 8.279v9.696c0.224 64.96-2.336 107.904-12.8 155.968-18.432 84.256-56 138.24-118.368 156.544l-12 3.52c-7.353 2.698-12.774 9.030-14.132 16.761l-1.804 11.463c-4.704 29.504-22.528 46.464-43.296 46.464v39.584c40.48 0 74.624-31.072 82.4-79.808 166.944-49.024 159.584-287.872 159.584-360.192 44.288-28.096 122.592-85.056 77.088-154.048-44.704 0.16-184.096 0.128-319.424 0.096v39.616l292.768-0.032c1.6 23.872-22.976 50.080-71.616 80.928zM612.864 120s0 6.368-19.168 6.944c-19.136 0.608-20.48-6.944-20.48-6.944 0-26.722-21.662-48.384-48.384-48.384-26.722 0-48.384 21.662-48.384 48.384s0 6.112-20.48 6.72c-20.512 0.608-19.136-6.72-19.136-6.72 0-48.601 39.399-88 88-88 48.601 0 88 39.399 88 88z"  horiz-adv-x="1024" />

    
    <glyph glyph-name="QQzixun" unicode="&#58915;" d="M524.192 736c237.6 0 249.28-226.88 249.28-226.88 36.032-47.712 16.576-90.56 16.576-90.56 115.84-182.080 40.896-234.72 20.448-238.592-20.48-3.872-39.936 22.4-39.936 22.4s-6.816-26.24-23.36-39.936c60.384-28.192 49.632-63.264 49.632-63.264s-12.672-105.92-263.872-38.976l-21.44 3.904c-240.768-86.912-270.688 30.208-270.688 30.208s-9.728 48.64 36.992 67.2c-27.264 16.544-36.992 51.584-36.992 51.584s-24.32-39.904-56.48-25.312c-32.128 14.592-51.616 144.096 69.12 237.568 0 0-17.504 55.52 22.4 88.64 0 0 10.752 222.016 248.32 222.016zM295.36 408.832c-115.872-71.776-95.424-187.84-95.424-187.84s18.496 9.376 31.648 36.416c13.12 27.040 33.6-4.416 33.6-4.416s12.64-61.952 51.424-86.24c38.784-24.256-1.696-39.744-1.696-39.744s-42.688-0.64-39.040-29.92c3.68-29.248 141.376-65.92 224-0.96l43.808-5.92c144.128-50.624 215.2-3.424 219.936 5.632 4.736 9.056-21.76 26.848-46.144 37.12-24.384 10.336-30.656 21.184-9.088 35.68 21.568 14.496 30.080 43.264 42.688 73.056 12.64 29.76 31.648 15.232 34.080 6.848 2.432-8.352 20.48-36.352 20.48-36.352s46.912 50.24-50.656 198.624c0 0 21.152 44.48-14.624 80.64 0 0-8.736 208.512-220.064 208.512-211.36 0-207.392-200.64-207.392-200.64-52.576-45.216-17.536-90.496-17.536-90.496z"  horiz-adv-x="1024" />

    
    <glyph glyph-name="chehui" unicode="&#58898;" d="M844.48 122.048c-6.229 0.012-11.771 2.939-15.337 7.489-60.951 78.239-221.207 169.151-336.503 169.151-12.576 0.064-47.040-0.192-69.024-0.352v-138.336c-0.033-10.755-8.76-19.462-19.52-19.462-5.694 0-10.819 2.438-14.387 6.327l-224.621 246.222c-3.16 3.456-5.096 8.078-5.096 13.152s1.936 9.696 5.109 13.167l224.563 246.225c3.581 3.904 8.706 6.342 14.4 6.342 10.76 0 19.487-8.706 19.52-19.459l0-138.947c11.644 0.155 25.393 0.244 39.163 0.244 10.724 0 21.436-0.054 32.135-0.161 95.070-2.995 190.078-54.227 265.918-144.243 61.216-72.64 102.688-164.16 103.2-227.68 0-0.048 0.001-0.104 0.001-0.16 0-10.781-8.739-19.52-19.52-19.52-0 0-0 0-0.001 0zM492.48 337.728h0.16c59.776 0 133.344-21.344 207.136-60.096 42.336-22.24 81.76-48.864 113.376-76.096-14.080 42.336-41.024 93.856-82.208 142.72-39.712 47.168-123.584 126.816-238.912 130.4-14.688 0.448-87.040-0.32-87.744-0.32-0.048-0-0.104-0.001-0.16-0.001-10.787 0-19.534 8.736-19.552 19.519l-0 108.258-178.656-195.84 178.656-195.904v107.36c-0 0-0 0-0 0.001 0 10.724 8.648 19.429 19.351 19.519 0.713 0 69.257 0.48 88.553 0.48z"  horiz-adv-x="1024" />

    
    <glyph glyph-name="chakan" unicode="&#58905;" d="M859.488 388.8c-120 152.704-245.12 226.304-371.776 218.656-45.696-2.752-91.328-16.256-135.68-40.16-34.912-18.816-69.12-44.128-101.632-75.2-54.976-52.576-86.016-103.264-87.328-105.408a21.12 21.12 0 0 1-3.04-11.808 21.12 21.12 0 0 1 3.04-11.84c1.28-2.144 32.352-52.832 87.36-105.408 32.48-31.072 66.688-56.384 101.632-75.2 44.32-23.904 89.952-37.44 135.648-40.192 5.952-0.32 11.904-0.512 17.856-0.512 120.576 0 239.552 73.664 353.92 219.2a21.12 21.12 0 0 1 4.48 13.92 21.12 21.12 0 0 1-4.48 13.92z m-369.024-204.224c-89.728 5.344-163.68 58.88-209.92 102.88a564.736 564.736 0 0 0-74.528 87.392 564.64 564.64 0 0 0 74.56 87.392c46.208 44 120.16 97.6 209.92 102.912 108.576 6.432 218.144-57.6 325.824-190.304-107.68-132.704-217.248-196.736-325.856-190.272zM512 475.36a104 104 0 0 1-103.904-103.904A104 104 0 0 1 512 267.52a104 104 0 0 1 103.904 103.904A104 104 0 0 1 512 475.36z m-0.416-165.44a61.568 61.568 0 0 0-61.504 61.536c0 33.92 27.584 61.472 61.504 61.472s61.472-27.584 61.472-61.472c0-33.92-27.584-61.504-61.472-61.504z"  horiz-adv-x="1024" />

    
    <glyph glyph-name="fabu" unicode="&#58928;" d="M812.352 616.704l-128.352-443.040-154.112 73.056s-19.488 0-24.384-13.632c-4.928-13.6 6.944-23.168 6.944-23.168l156.48-74.176c22.56-10.72 46.56 0.192 53.472 24.096l139.744 482.368c6.976 24.032-6.4 35.84-29.248 26.688l-655.296-263.552c-23.104-9.28-23.584-25.504-0.736-36.32l177.408-84.096s17.44-4.288 24.16 11.008c6.72 15.296-6.72 25.792-6.72 25.792l-134.4 63.712 575.040 231.264zM444.864 110.464l5.664 109.664c1.312 19.776 15.168 49.056 29.76 62.72l322.24 301.376 9.056 32.064-60.224-24.128-298.976-279.616c-22.080-20.704-40.512-59.648-42.496-89.76l-6.176-112.32s5.888-15.488 20.352-15.488 20.8 15.488 20.8 15.488z"  horiz-adv-x="1024" />

    
    <glyph glyph-name="bianji" unicode="&#58929;" d="M463.36 95.2l326.080 388.704c18.592 22.144 15.68 55.168-6.56 73.792l-146.528 122.976c-9.051 7.652-20.853 12.304-33.741 12.304-16.044 0-30.405-7.209-40.020-18.563l-326.175-388.813 18.24-208.704 208.672 18.304zM239.488 32.448c-0.587-0.051-1.269-0.080-1.959-0.080-12.542 0-22.849 9.57-24.018 21.806l-21.512 245.441 337.6 402.336c17.616 20.888 43.802 34.065 73.066 34.065 23.452 0 44.927-8.463 61.539-22.502l146.387-122.892c20.943-17.612 34.16-43.828 34.16-73.13 0-23.395-8.425-44.822-22.406-61.413l-337.482-402.128-21.536 41.248 21.504-41.472c-94.912-26.624-245.344-21.28-245.344-21.28zM757.856 446.88l-27.072-32.512-226.368 189.952 27.776 32.832 225.664-190.272zM236.896 285.664l2.688-29.024c5.92 0.576 12.352 0 18.368 0 93.632 0 170.56-71.36 179.456-162.624l25.824 1.952 11.968 14.72c-17.213 105.774-107.906 185.538-217.229 185.538-4.386 0-8.741-0.128-13.063-0.382l-7.979-10.212z"  horiz-adv-x="1024" />

    
    <glyph glyph-name="dayin" unicode="&#58947;" d="M817.088 606.464h-83.424v67.2c0 30.688-15.584 62.336-46.24 62.336h-333.44c-30.624 0-64.448-31.68-64.448-62.304v-67.232h-65.216c-30.624 0-64.32-31.808-64.32-62.464v-203.744c0-30.656 33.696-48.416 64.32-48.416h65.216v-207.68c0-30.688 33.792-48.16 64.448-48.16h333.44c30.656 0 46.24 17.472 46.24 48.128v207.744h83.424c30.656 0 46.912 17.728 46.912 48.384v203.744c0 30.656-16.256 62.464-46.912 62.464zM326.528 673.664c0 10.24 17.28 26.112 27.488 26.112h333.44c10.208 0 9.216-15.872 9.216-26.080v-67.232h-370.112v67.2zM696.64 91.264c0-10.24-8-19.008-18.24-19.008h-333.44c-10.219 0.268-18.4 8.615-18.4 18.874 0 0.047 0 0.094 0.001 0.141l-0 274.617c0 10.24 8.192 18.56 18.4 18.56h333.44c10.24 0 18.24-8.32 18.24-18.56v-274.624zM826.208 340.288c0-10.24 1.12-11.36-9.12-11.36h-83.424v29.888c0 30.656-15.584 62.624-46.24 62.624h-333.44c-30.624 0-64.448-32-64.448-62.624v-29.888h-65.216c-10.176 0-27.296 1.152-27.296 11.36v203.712c0 10.24 17.12 25.44 27.296 25.44h592.768c10.24 0 9.12-15.232 9.12-25.44v-203.744zM643.168 302.368h-259.36c-0.114 0.003-0.249 0.004-0.384 0.004-10.011 0-18.128-8.107-18.144-18.115-0-10.242 8.32-18.114 18.528-18.114h259.36c10.24 0 18.496 7.84 18.496 18.112-0.016 10.008-8.133 18.115-18.144 18.115-0.124 0-0.247-0.001-0.37-0.004zM643.168 195.328h-259.36c-0 0-0 0-0 0-10.215 0-18.496-8.281-18.496-18.496 0-10.215 8.281-18.496 18.496-18.496 0 0 0 0 0 0h259.36c0 0 0 0 0 0 10.215 0 18.496 8.281 18.496 18.496 0 10.215-8.281 18.496-18.496 18.496-0 0-0 0-0 0zM728.224 523.488c0-15.057 12.207-27.264 27.264-27.264s27.264 12.207 27.264 27.264c0 0 0 0 0 0 0 15.057-12.207 27.264-27.264 27.264-15.057 0-27.264-12.207-27.264-27.264z"  horiz-adv-x="1024" />

    
    <glyph glyph-name="hetong" unicode="&#58902;" d="M480 234.016c-0.002-0.353-0.004-0.77-0.004-1.188 0-105.367 85.417-190.784 190.784-190.784 0.418 0 0.835 0.001 1.252 0.004 0.289-0.003 0.706-0.004 1.124-0.004 105.367 0 190.784 85.417 190.784 190.784 0 0.429-0.001 0.857-0.004 1.286 2.752 106.878-85.024 191.87-191.968 191.87-104.224 0-191.968-84.992-191.968-191.968zM672 74.016c-88.288 0-160 71.68-160 160 0 88.256 71.712 160 160 160s160-71.744 160-160c0-88.32-71.712-160-160-160zM707.616 209.792l3.712-33.28-25.888 18.496c-3.712 3.68-7.36 3.68-11.072 3.68s-7.392 0-11.104-3.68l-29.568-14.784 3.712 29.568c0 7.36 0 18.464-7.424 22.176l-22.176 22.176 33.28 3.712c7.392 0 14.784 7.36 18.496 14.784l14.784 29.568 14.784-29.568c3.68-7.392 11.072-11.104 18.464-14.784l33.28-3.712-25.888-22.176c-7.36-7.392-7.36-14.784-7.36-22.176zM759.2 276.032l-46.080 7.264-21.792 41.216c-4.864 12.16-24.256 12.16-31.552 0l-21.792-41.216-46.080-7.264c-7.264 0-12.128-4.832-14.56-12.128-2.4-7.264 0-12.128 4.864-16.96l33.92-31.52-4.8-48.512c0-7.264 2.4-12.096 7.232-16.96 4.864-4.832 12.16-4.832 19.424-2.432l41.216 21.824 41.216-21.824c2.4-2.4 4.832-2.4 7.264-2.4 4.864 0 7.264 2.4 9.696 2.4 4.474 4.046 7.272 9.871 7.272 16.35 0 0.214-0.003 0.428-0.009 0.641l-7.263 46.049 33.92 31.52c2.464 7.296 2.464 14.56 2.464 21.824-2.432 7.264-7.296 9.696-14.56 12.16zM248 540.192c0 10.944 8.704 19.808 19.936 19.808h312.128c11.008 0 19.936-9.184 19.936-19.808 0-0.029 0-0.063 0-0.097 0-10.887-8.825-19.712-19.712-19.712-0.079 0-0.158 0-0.236 0.001l-312.116-0c-10.948 0.071-19.811 8.901-19.936 19.829zM248 386.208c0 10.912 8.896 19.776 19.52 19.776h180.96c10.94-0 19.808-8.868 19.808-19.808s-8.868-19.808-19.808-19.808l-180.96 0.032c-10.802 0.197-19.486 8.983-19.52 19.805zM248 232.192c0 10.944 8.96 19.808 19.52 19.808h136.96c10.94-0 19.808-8.868 19.808-19.808 0-10.94-8.868-19.808-19.808-19.808h-136.96c-10.819 0.18-19.52 8.993-19.52 19.837 0 0.001 0 0.002 0 0.003zM688 692.064c0 24.384-19.744 43.936-44.096 43.936h-439.808c-24.352 0-44.096-19.616-44.096-43.84v-572.352c0-24.064 19.712-43.808 44.064-43.808h265.728s21.216 0 21.216 19.648-21.216 19.936-21.216 19.936h-265.728c-2.464 0-4.48 2.016-4.48 4.224v572.384c0 2.24 1.984 4.192 4.512 4.192h439.808c2.56 0 4.48-1.92 4.48-4.32v-222.144s0.256-20.256 19.936-20c19.68 0.256 19.68 20 19.68 20v222.144z"  horiz-adv-x="1024" />

    
    <glyph glyph-name="fanshenhe" unicode="&#59151;" d="M351.232 655.616c44.212 25.638 97.278 40.769 153.878 40.769 0.206 0 0.412-0 0.618-0.001 172.48 0 312.352-139.84 312.352-312.384s-139.84-312.384-312.384-312.384c-151.586 0-277.964 107.926-306.485 251.129s-5.899 16.295-21.995 13.767c-16.096-2.56-17.216-19.232-17.216-19.232 31.168-162.496 174.080-285.28 345.696-285.28 194.4 0 352 157.6 352 352s-157.6 352-352 352c-0.186 0-0.406 0.001-0.626 0.001-64.123 0-124.223-17.224-175.926-47.299l-24.184 43.906-36.896-109.44 113.92-18.784-30.752 51.2zM336 477.152v83.744l134.24 0.224c5.152 7.296 10.88 12.64 17.088 16.096 6.24 3.456 13.984 5.024 23.264 4.768 9.28-0.256 17.056-1.76 23.296-4.48 6.208-2.688 10.656-5.728 13.312-9.056l5.952-7.36 134.848-0.192v-58.24l-65.6-20.096v37.184h-220.576v-16.512l-65.824-26.080zM620.576 426.272h-77.152v-49.92h69.824l-18.112-43.36h-51.712v-55.68l77.152-0.224v149.184zM480.384 332.96h-76.8v-55.68h76.8v55.68zM480.384 426.272h-76.8v-49.92h76.8v49.92zM340.768 471.392h139.616v29.44h63.040v-29.44h140.192v-191.712l-63.040-43.936-77.152-0.416v-57.824l-63.040-22.848v80.64h-139.616v236.096z"  horiz-adv-x="1024" />

    
    <glyph glyph-name="shenhe" unicode="&#59121;" d="M783.616 229.536c25.638 44.212 40.769 97.278 40.769 153.878 0 0.206-0 0.412-0.001 0.618 0 172.512-139.84 312.352-312.384 312.352s-312.384-139.84-312.384-312.384c0.016-151.574 107.939-277.936 251.133-306.454s16.291-5.898 13.763-22.026c-2.56-16.096-19.232-17.216-19.232-17.216-162.496 31.2-285.28 174.080-285.28 345.696 0 194.4 157.6 352 352 352s352-157.6 352-352c0-0.176 0.001-0.385 0.001-0.594 0-64.123-17.224-124.223-47.299-175.926l43.938-24.216-109.44-36.896-18.784 113.952 51.2-30.784zM336 499.2v83.712l134.24 0.192c5.152 7.296 10.88 12.672 17.088 16.096 6.24 3.456 13.984 5.024 23.264 4.8 9.28-0.256 17.056-1.792 23.296-4.48 6.208-2.72 10.656-5.76 13.312-9.056l5.952-7.36 134.848-0.192v-58.24l-65.6-20.128v37.216h-220.576v-16.48l-65.824-26.080zM620.576 448.32h-77.152v-49.952h69.824l-18.112-43.328h-51.712v-55.68l77.152-0.224v149.184zM480.384 355.008h-76.8v-55.68h76.8v55.68zM480.384 448.32h-76.8v-49.952h76.8v49.92zM340.768 493.44h139.616v29.44h63.040v-29.44h140.192v-191.744l-63.040-43.904-77.152-0.416v-57.824l-63.040-22.88v80.64h-139.616v236.096z"  horiz-adv-x="1024" />

    
    <glyph glyph-name="jinrugongzidan" unicode="&#59137;" d="M181.92 364c-0.010-0-0.021-0-0.032-0-12.088 0-21.888 9.8-21.888 21.888 0 0.045 0 0.090 0 0.135-0 12.153 10.144 21.977 21.92 21.977h210.592l-86.912 86.976c-3.968 3.962-6.422 9.438-6.422 15.488 0 6.081 2.48 11.584 6.484 15.55 3.991 3.961 9.487 6.408 15.554 6.408 6.035 0 11.505-2.421 15.49-6.346l123.389-123.389c4.709-4.050 7.673-10.016 7.673-16.674 0-6.044-2.443-11.517-6.394-15.487l-124.575-124.639c-3.98-3.903-9.437-6.312-15.457-6.312-12.13 0-21.975 9.781-22.079 21.887-0 5.834 2.304 11.434 6.4 15.53l86.976 87.008h-210.72zM512.032 520.224c0 10.944 10.016 19.776 22.080 19.776h219.84c12.16 0 21.984-8.864 21.984-19.808 0-10.944-9.824-19.808-21.984-19.808h-219.84c-0.092-0.001-0.201-0.002-0.31-0.002-5.887 0-11.264 2.183-15.365 5.785-3.912 3.438-6.389 8.48-6.406 14.101zM512.032 388.16c0 10.944 10.016 19.84 22.080 19.84h219.84c12.16 0 22.080-8.8 22.080-19.84 0-10.944-10.016-19.776-22.080-19.776h-219.84c-0.092-0.001-0.201-0.002-0.31-0.002-5.887 0-11.264 2.183-15.365 5.785-3.912 3.438-6.389 8.48-6.406 14.101l0-0.107zM512.032 256.192c0 10.944 10.016 19.776 22.080 19.776h219.84c12.16 0 22.080-8.768 22.080-19.808 0-10.944-10.016-19.776-22.080-19.776h-219.84c-0.092-0.001-0.201-0.002-0.31-0.002-5.887 0-11.264 2.183-15.365 5.785-3.912 3.438-6.389 8.48-6.406 14.101zM424 254.048v-109.92c0-24.64 19.616-44.128 43.808-44.128h352.352c24.032 0 43.808 19.68 43.808 43.936v484.16c0.032 24.192-19.584 43.904-43.776 43.904h-352.352c-24.032 0-43.808-19.68-43.808-44v-110.944s-0.544-21.984 19.52-21.984c20.096 0 20.096 21.984 20.096 21.984v110.944c0 2.4 1.984 4.384 4.16 4.384h352.416c2.304 0 4.192-1.92 4.192-4.32v-484.16c-0.049-2.305-1.87-4.169-4.152-4.288l-352.488-0c-2.368 0-4.192 1.824-4.192 4.512v109.952s0 21.984-20.096 21.984c-20.064 0-19.52-21.984-19.52-21.984z"  horiz-adv-x="1024" />

    
    <glyph glyph-name="kuaijiejian" unicode="&#59102;" d="M160 564.192c0.018 24.199 19.639 43.808 43.84 43.808 0.068 0 0.135-0 0.202-0l615.926 0c24.32 0 44.032-19.776 44.032-43.808v-352.352c-0.018-24.199-19.639-43.808-43.84-43.808-0.068 0-0.135 0-0.202 0l-615.926-0c-24.32 0-44.032 19.776-44.032 43.808v352.32zM199.584 564.192v-352.352c0-2.208 2.016-4.192 4.48-4.192h615.904c2.56 0 4.448 1.824 4.448 4.16v352.416c0 2.208-2.016 4.192-4.48 4.192h-615.872c-2.56 0-4.448-1.824-4.448-4.16zM721.248 491.424c3.456 3.992 8.515 6.515 14.164 6.561 10.828-0.001 19.692-10.145 19.692-22.241v-87.744c0 24.128-23.072 22.4-23.072 22.4h-16.512v65.344c-0.002 0.116-0.003 0.252-0.003 0.389 0 5.866 2.171 11.226 5.754 15.318zM269.984 478.208c0 10.944 9.76 19.808 21.984 19.808h22.080c12.128 0 21.952-8.8 21.952-19.808 0-10.944-9.728-19.808-21.984-19.808h-22.048c-0.070-0.001-0.152-0.001-0.234-0.001-5.896 0-11.278 2.196-15.375 5.815-3.895 3.422-6.36 8.44-6.375 14.034zM380 478.208c0 10.944 9.728 19.808 21.984 19.808h22.048c12.128 0 21.984-8.8 21.984-19.808 0-10.944-9.76-19.808-21.984-19.808h-22.080c-0.050-0-0.108-0.001-0.167-0.001-5.912 0-11.309 2.209-15.409 5.846-3.891 3.419-6.355 8.43-6.376 14.017zM490.016 478.208c0 10.944 9.728 19.808 21.952 19.808h22.080c12.128 0 21.952-8.8 21.952-19.808 0-10.944-9.728-19.808-21.984-19.808h-22.016c-0.070-0.001-0.152-0.001-0.234-0.001-5.896 0-11.278 2.196-15.375 5.815-3.895 3.422-6.36 8.44-6.375 14.034zM600 478.208c0 10.944 9.728 19.808 21.984 19.808h22.048c12.128 0 21.952-8.8 21.952-19.808 0-10.944-9.728-19.808-21.952-19.808h-22.080c-0.050-0-0.108-0.001-0.167-0.001-5.912 0-11.309 2.209-15.409 5.846-3.891 3.419-6.355 8.43-6.376 14.017zM269.984 302.816c0 10.944 9.76 19.776 21.984 19.776h22.080c12.128 0 21.952-8.8 21.952-19.776 0-10.944-9.728-19.84-21.984-19.84h-22.048c-0.070-0.001-0.152-0.001-0.234-0.001-5.896 0-11.278 2.196-15.375 5.815-3.897 3.43-6.363 8.456-6.375 14.059zM688 302.816c0 10.944 9.728 19.776 21.984 19.776h22.048c12.128 0 21.952-8.8 21.952-19.776 0-10.944-9.728-19.84-21.952-19.84h-22.080c-0.053-0-0.116-0.001-0.179-0.001-5.908 0-11.301 2.209-15.397 5.845-3.894 3.427-6.358 8.446-6.376 14.041zM269.984 390.208c0 10.944 10.112 19.808 22.208 19.808h43.616c0.087 0.001 0.191 0.002 0.294 0.002 5.902 0 11.294-2.183 15.413-5.785 4.133-3.689 6.469-8.745 6.501-14.025 0-10.912-10.112-19.776-22.208-19.776h-43.648c-0.087-0.001-0.191-0.002-0.294-0.002-5.902 0-11.294 2.183-15.413 5.785-3.945 3.431-6.455 8.477-6.502 14.111l0.033-0.119zM621.984 390.208c0 10.944 9.92 19.808 21.824 19.808h88.384c0.347 0.019 0.753 0.030 1.161 0.030 7.67 0 14.453-3.801 18.567-9.622 1.98-2.908 3.133-6.411 3.133-10.183 0-3.772-1.153-7.275-3.126-10.175-4.119-5.847-10.912-9.662-18.596-9.662-0.401 0-0.799 0.010-1.195 0.031l-88.297-0.002c-0.032-0-0.070-0-0.107-0-5.9 0-11.285 2.209-15.372 5.845-3.861 3.413-6.301 8.402-6.313 13.963l-0.064-0.031zM380 302.816c0 10.944 10.016 19.776 22.080 19.776h219.84c12.192 0 22.080-8.8 22.080-19.776 0-10.944-10.016-19.84-22.080-19.84h-219.84c-0.083-0.001-0.18-0.002-0.278-0.002-5.887 0-11.263 2.183-15.364 5.784-3.927 3.436-6.416 8.483-6.438 14.112zM402.016 390.208c0 10.944 9.728 19.808 21.952 19.808h22.080c12.128 0 21.952-8.8 21.952-19.808 0-10.944-9.728-19.808-21.984-19.808h-22.048c-0.070-0.001-0.152-0.001-0.234-0.001-5.896 0-11.278 2.196-15.375 5.815-3.895 3.422-6.36 8.44-6.375 14.034l0.032-0.040zM512 390.208c0 10.944 9.728 19.808 21.984 19.808h22.048c12.128 0 21.952-8.8 21.952-19.808 0-10.944-9.728-19.808-21.952-19.808h-22.080c-0.050-0-0.108-0.001-0.167-0.001-5.912 0-11.309 2.209-15.409 5.846-3.891 3.419-6.355 8.43-6.376 14.017z"  horiz-adv-x="1024" />

    
    <glyph glyph-name="pingzhengmoban" unicode="&#58910;" d="M263.616 691.968v-615.936c0-2.56 1.856-4.448 4.32-4.448h484.16c2.38 0.053 4.289 1.995 4.289 4.383 0 0.034-0 0.068-0.001 0.102l0 615.867c0.002 0.048 0.003 0.104 0.003 0.16 0 2.368-1.92 4.288-4.288 4.288-0.012 0-0.025-0-0.037-0l-484.158 0c-2.38-0.053-4.289-1.995-4.289-4.383 0-0.034 0-0.068 0.001-0.102zM224 691.968c0 24.32 19.68 44.032 43.936 44.032h484.16c24.224 0 43.904-19.552 43.904-44.032v-615.936c0-24.32-19.68-44.032-43.936-44.032h-484.16c-0-0-0-0-0-0-24.248 0-43.904 19.656-43.904 43.904 0 0.045 0 0.090 0 0.135l-0 615.929zM347.2 375.2h325.6v61.6h-325.6v-61.6zM312 450.208c0 12.032 9.792 21.792 21.856 21.792h352.288c12.064 0 21.856-9.92 21.856-21.792v-88.416c-0.018-12.039-9.782-21.792-21.824-21.792-0.011 0-0.023 0-0.034 0l-352.286-0c-12.034 0.036-21.784 9.764-21.856 21.785l-0 88.455zM347.2 238.784v-61.568h94.592v61.568h-94.592zM312 252.224c0 12.032 9.824 21.76 21.92 21.76h121.184c12.096 0 21.888-9.92 21.888-21.76v-88.416c-0.036-12.043-9.808-21.792-21.856-21.792-0.011 0-0.023 0-0.034 0l-121.182-0c-12.043 0.018-21.812 9.73-21.92 21.75l-0 88.426zM578.208 177.184h94.592v61.6h-94.592v-61.568zM543.008 252.192c0 12.064 9.824 21.792 21.888 21.792h121.184c12.096 0 21.92-9.92 21.92-21.76v-88.416c-0.036-12.043-9.808-21.792-21.856-21.792-0.023 0-0.045 0-0.068 0l-121.181-0c-12.029 0.036-21.78 9.741-21.888 21.75l-0 88.426zM263.968 603.552l491.904 1.376v-39.616l-491.904-1.376v39.616z"  horiz-adv-x="1024" />

    
    <glyph glyph-name="paigong" unicode="&#58908;" d="M351.68 647.808l-29.6 0.192c-0.048 0-0.104 0-0.16 0-36.407 0-65.92-29.513-65.92-65.92 0-0 0-0 0-0l-0-484.16c0-36.224 29.44-65.92 65.792-65.92h396.416c36.352 0.073 65.792 29.558 65.792 65.92 0 0-0 0-0 0l0 484.16c0 36.224-29.6 65.92-66.144 65.92 0 0-15.488-0.256-29.344-0.128 8.384-24.608 3.712-39.744 3.712-39.744l25.632 0.256c0 0 0.001 0 0.001 0 14.579 0 26.414-11.746 26.559-26.29l0-484.174c0-0 0-0 0-0 0-14.505-11.74-26.268-26.237-26.304l-396.355-0c-14.451 0.126-26.123 11.844-26.176 26.299l-0 484.165c0 14.592 11.712 26.304 26.464 26.304l25.12-0.576s-3.104 25.248 4.48 40zM417.44 577.696c-11.118 4.053-20.603 10.232-28.378 18.104-0.006-2.104-7.078 8.648-7.11 23.336 0 15.040 5.6 24.544 15.488 31.040 6.24 4.16 12.672 6.144 16.192 6.624l11.744 1.664 2.88 11.488c2.673 8.881 7.426 16.458 13.709 22.444 1.235 3.092 10.163 8.404 22.547 8.404h66.24v35.2h-66.24c-24.576 0-43.552-11.264-56.704-29.312-4.48-6.080-7.744-12.128-10.080-17.6-6.080-1.952-12.8-4.992-19.616-9.472-19.424-12.768-31.36-33.056-31.36-60.512 0.032-27.84 13.888-48.928 35.904-63.264 13.763-9.196 30.341-15.267 48.212-16.833l-10.676 1.889h111.072v35.2h-108.928c-7.296 2.136-13.664 5.095-19.467 8.851zM632.192 706.688c-13.152 18.048-32.128 29.312-56.704 29.312h-66.24v-35.2h66.24c12.384 0 21.312-5.312 28.288-14.848 4.48-6.176 7.072-12.48 8-16l2.88-11.52 11.712-1.6c3.52-0.512 9.92-2.528 16.192-6.624 9.92-6.528 15.488-16 15.488-31.072 0-14.688-7.104-25.44-19.936-33.792-9.525-6.229-20.916-10.423-33.176-11.697l-96.2 2.449v-35.2h111.072l3.712 0.416c8.896 1.92 21.248 6.368 33.824 14.528 22.016 14.336 35.872 35.424 35.904 63.264 0 27.456-11.936 47.744-31.36 60.48-10.038 6.742-22.044 11.365-34.989 12.949 9.518 9.912 1.011 21.137-9.555 29.987zM520 309.216c0.461-0.010 1.003-0.016 1.547-0.016 41.32 0 74.816 33.496 74.816 74.816 0 41.32-33.496 74.816-74.816 74.816-0.544 0-1.087-0.006-1.628-0.017-40.568-0.866-73.188-34.023-73.188-74.799 0-40.776 32.62-73.933 73.188-74.799zM467.2 287.456c-34.397 19.043-57.299 55.119-57.299 96.544 0 60.742 49.242 109.984 109.984 109.984 0.040 0 0.081-0 0.121-0 60.749-0.006 109.999-49.26 109.999-110.016 0-41.393-22.86-77.447-56.644-96.226 64.654-22.046 111.63-83.070 111.63-154.942 0 0 0-12.8-16.864-12.8-16.832 0-16.128 12.8-16.128 12.8 0 65.92-57.76 123.040-132 123.040-74.24 0-132-57.152-132-123.040 0 0-1.824-12.8-17.216-12.8-15.36 0-15.776 12.8-15.776 12.8 0 71.872 46.976 132.896 112.192 154.656z"  horiz-adv-x="1024" />

    
    <glyph glyph-name="rili" unicode="&#58912;" d="M292.736 628h-66.656c-36.64 0-66.080-29.44-66.080-65.792v-396.448c0.073-36.352 29.558-65.792 65.92-65.792 0 0 0 0 0 0l572.16-0c36.576 0 65.92 29.44 65.92 65.792v396.48c-0.055 36.348-29.533 65.792-65.888 65.792-0.011 0-0.023-0-0.034-0l-66.398 0s-21.248 0.704-21.248-20.16 21.248-19.424 21.248-19.424h66.432c14.496 0 26.304-11.776 26.304-26.24v-396.384c0-0.019 0-0.042 0-0.065 0-14.439-11.705-26.144-26.144-26.144-0.068 0-0.135 0-0.202 0.001l-572.15-0c-0-0-0-0-0-0-14.505 0-26.268 11.74-26.304 26.237l-0 396.323c0.036 14.465 11.77 26.177 26.24 26.177 0.079 0 0.157-0 0.236-0.001l66.644 0s21.376 0 21.376 19.456-21.376 20.16-21.376 20.16zM336 651.968c0.070 10.957 8.871 19.836 19.791 20.032 10.929 0 19.825-8.64 19.825-20.032v-91.968c-0.070-10.968-8.889-19.854-19.824-20.032-0.035-0-0.059-0-0.082-0-10.887 0-19.712 8.825-19.712 19.712 0 0.113 0.001 0.225 0.003 0.337l-0 91.951zM644 651.968c0.070 10.957 8.871 19.836 19.791 20.032 10.929 0 19.825-8.64 19.825-20.032v-91.968c-0.070-10.968-8.889-19.854-19.824-20.032-0.035-0-0.059-0-0.082-0-10.887 0-19.712 8.825-19.712 19.712 0 0.113 0.001 0.225 0.003 0.337l-0 91.951zM292 300.192c0 10.944 8.768 19.808 19.52 19.808h48.96c10.784 0 19.52-9.184 19.52-19.808 0-0.038 0-0.083 0-0.129 0-10.813-8.72-19.589-19.512-19.679l-48.969-0c-10.813 0.198-19.504 9.001-19.52 19.839zM292 432.192c0 10.944 8.768 19.808 19.52 19.808h48.96c10.784 0 19.52-9.184 19.52-19.808 0-0.038 0-0.083 0-0.129 0-10.813-8.72-19.589-19.512-19.679l-48.969-0c-10.813 0.198-19.504 9.001-19.52 19.839zM468 432.192c0 10.944 8.768 19.808 19.52 19.808h48.96c10.784 0 19.52-9.184 19.52-19.808 0-0.038 0-0.083 0-0.129 0-10.813-8.72-19.589-19.512-19.679l-48.969-0c-10.813 0.198-19.504 9.001-19.52 19.839zM401.984 608.192c0 10.944 8.928 19.808 19.52 19.808h180.96c10.784 0 19.52-9.184 19.52-19.808 0-0 0-0.001 0-0.002 0-10.832-8.709-19.63-19.506-19.774l-180.942-0c-10.79 0.197-19.468 8.965-19.52 19.772zM468 300.192c0 10.944 8.768 19.808 19.52 19.808h48.96c10.784 0 19.52-9.184 19.52-19.808 0-0.038 0-0.083 0-0.129 0-10.813-8.72-19.589-19.512-19.679l-48.969-0c-10.813 0.198-19.504 9.001-19.52 19.839zM644 432.192c0 10.944 8.768 19.808 19.52 19.808h48.96c10.784 0 19.52-9.184 19.52-19.808 0-0.038 0-0.083 0-0.129 0-10.813-8.72-19.589-19.512-19.679l-48.969-0c-10.813 0.198-19.504 9.001-19.52 19.839zM644 300.192c0 10.944 8.768 19.808 19.52 19.808h48.96c10.784 0 19.52-9.184 19.52-19.808 0-0.038 0-0.083 0-0.129 0-10.813-8.72-19.589-19.512-19.679l-48.969-0c-10.813 0.198-19.504 9.001-19.52 19.839z"  horiz-adv-x="1024" />

    
    <glyph glyph-name="paigongjilu" unicode="&#58909;" d="M351.68 647.808l-29.6 0.192c-0.048 0-0.104 0-0.16 0-36.407 0-65.92-29.513-65.92-65.92 0-0 0-0 0-0l-0-484.16c0-36.224 29.44-65.92 65.792-65.92h396.416c36.352 0.073 65.792 29.558 65.792 65.92 0 0-0 0-0 0l0 484.16c0 36.224-29.6 65.92-66.144 65.92 0 0-15.488-0.256-29.344-0.128 8.384-24.608 3.712-39.744 3.712-39.744l25.632 0.256c0 0 0.001 0 0.001 0 14.579 0 26.414-11.746 26.559-26.29l0-484.174c0-0 0-0 0-0 0-14.505-11.74-26.268-26.237-26.304l-396.355-0c-14.451 0.126-26.123 11.844-26.176 26.299l-0 484.165c0 14.592 11.712 26.304 26.464 26.304l25.12-0.576s-3.104 25.248 4.48 40zM417.44 577.696c-11.118 4.053-20.603 10.232-28.378 18.104-0.006-2.104-7.078 8.648-7.11 23.336 0 15.040 5.6 24.544 15.488 31.040 6.24 4.16 12.672 6.144 16.192 6.624l11.744 1.664 2.88 11.488c2.673 8.881 7.426 16.458 13.709 22.444 1.235 3.092 10.163 8.404 22.547 8.404h66.24v35.2h-66.24c-24.576 0-43.552-11.264-56.704-29.312-4.48-6.080-7.744-12.128-10.080-17.6-6.080-1.952-12.8-4.992-19.616-9.472-19.424-12.768-31.36-33.056-31.36-60.512 0.032-27.84 13.888-48.928 35.904-63.264 13.763-9.196 30.341-15.267 48.212-16.833l-10.676 1.889h111.072v35.2h-108.928c-7.296 2.136-13.664 5.095-19.467 8.851zM632.192 706.688c-13.152 18.048-32.128 29.312-56.704 29.312h-66.24v-35.2h66.24c12.384 0 21.312-5.312 28.288-14.848 4.48-6.176 7.072-12.48 8-16l2.88-11.52 11.712-1.6c3.52-0.512 9.92-2.528 16.192-6.624 9.92-6.528 15.488-16 15.488-31.072 0-14.688-7.104-25.44-19.936-33.792-9.525-6.229-20.916-10.423-33.176-11.697l-96.2 2.449v-35.2h111.072l3.712 0.416c8.896 1.92 21.248 6.368 33.824 14.528 22.016 14.336 35.872 35.424 35.904 63.264 0 27.456-11.936 47.744-31.36 60.48-10.038 6.742-22.044 11.365-34.989 12.949 9.518 9.912 1.011 21.137-9.555 29.987zM434.88 160.512l43.936 20.544 172.032 245.664c1.44 2.085 2.299 4.667 2.299 7.449 0 4.498-2.247 8.471-5.68 10.858l-17.867 12.509c-2.131 1.559-4.804 2.494-7.696 2.494-4.402 0-8.298-2.168-10.678-5.494l-172.059-245.704-4.288-48.32zM585.952 472.16c13.92 19.84 41.28 24.64 61.312 10.624l17.824-12.48c19.968-13.984 24.864-41.44 10.976-61.248l-176.736-252.416-79.872-37.344c-11.040-5.152-19.104 0.416-18.016 12.608l7.776 87.84 176.736 252.416zM598.496 436.352l39.648-27.744-17.664-25.248-39.68 27.776 17.696 25.216zM456.96 234.208l39.648-27.744-17.664-25.248-39.68 27.776 17.696 25.216z"  horiz-adv-x="1024" />

    
    <glyph glyph-name="shaixuan" unicode="&#58922;" d="M212.416 622.912c1.344-1.76 2.816-3.52 4.64-5.504l5.76-6.08-2.368 2.304c9.92-9.12 94.464-80.32 101.344-86.208l10.176-8.704c92.224-79.36 114.944-101.568 114.944-133.824 0-18.88-0.16-35.232-0.512-60.544-1.088-78.4 0.064-100.32 5.568-110.976 2.24-4.736 32.864-34.272 74.688-70.112l11.84-10.048c22.496-19.04 39.168-37.28 39.168-35.296l-0.096 32.704c-0.064 36.352-0.128 63.744-0.128 91.104 0 96.32 0.576 152.384 2.304 168.16 1.024 9.12 3.52 17.888 7.296 26.336 10.88 24.096 28 40.96 72.48 76.928 0.128 0.128 45.312 36.352 61.44 49.504a3034.24 3034.24 0 0 1 84.576 71.68l-2.976-2.848c13.152 13.888 17.696 24 17.376 36.896 0.32 23.104-22.08 43.616-39.328 43.616H252.928c-28.384 0-48.96-18.4-48.96-44.16 0-10.112 2.88-17.536 8.448-24.928zM780.608 736C815.04 736 864.64 702.304 864 647.808c0.704-24.512-9.408-45.44-29.376-66.56-148.64-130.56-206.592-156.736-211.104-196.352-3.392-31.36-1.28-325.056-1.824-328.96 0.128-5.76-1.088-11.52-4.096-15.424-12.864-12.608-25.92-8.448-32.384-2.88-49.664 40.416-160.352 130.432-172.928 156.864-14.816 28.48-9.312 87.296-9.312 190.4 0 23.232-174.496 161.632-212.224 196.352C181.6 590.976 160 610.88 160 647.808 160 701.568 204.032 736 252.928 736h527.68z m-94.944-352h158.592c10.88 0 19.712-9.152 19.712-19.776a19.872 19.872 0 0 0-19.712-19.84h-158.592a19.968 19.968 0 0 0-19.712 19.84 19.904 19.904 0 0 0 19.712 19.808z m-19.68-107.776a19.84 19.84 0 0 0 19.68 19.808h158.592c10.88 0 19.712-9.184 19.712-19.84a19.872 19.872 0 0 0-19.712-19.776h-158.592a19.968 19.968 0 0 0-19.712 19.84l0.032-0.032z m0-88a19.84 19.84 0 0 0 19.68 19.808h158.592c10.88 0 19.712-9.184 19.712-19.84a19.872 19.872 0 0 0-19.712-19.776h-158.592a19.968 19.968 0 0 0-19.712 19.84l0.032-0.032z"  horiz-adv-x="1024" />

    
    <glyph glyph-name="shangchuan" unicode="&#58936;" d="M495.168 665.824l-156.288-156.384c-3.626-3.263-8.449-5.259-13.739-5.259-11.364 0-20.576 9.212-20.576 20.576 0 5.289 1.996 10.112 5.275 13.757l191.407 191.437c3.712 3.744 8.857 6.061 14.544 6.061s10.832-2.318 14.543-6.060l191.425-191.457c3.263-3.626 5.259-8.449 5.259-13.739 0-11.364-9.212-20.576-20.576-20.576-5.289 0-10.112 1.996-13.757 5.275l-156.365 156.367v-416.096c-0.448-11.009-9.482-19.765-20.56-19.765-11.078 0-20.112 8.755-20.559 19.724l-0.001 416.136zM798.4 299.2v-195.104c-0.018-17.042-13.811-30.857-30.843-30.912l-503.621-0c-17.024 0.073-30.798 13.881-30.816 30.91l-0 195.106c-0.448 11.009-9.482 19.765-20.56 19.765-11.078 0-20.112-8.755-20.559-19.724l-0.001-205.416c-0-0.019-0-0.042-0-0.064 0-34.075 27.596-61.705 61.659-61.76l524.165-0c34.068 0.055 61.664 27.685 61.664 61.76 0 0.023-0 0.045-0 0.068l0 205.372c-0.448 11.009-9.482 19.765-20.56 19.765s-20.112-8.755-20.559-19.724z"  horiz-adv-x="1024" />

    
    <glyph glyph-name="shanchu" unicode="&#58913;" d="M680.992 608v52.704c0 41.6-33.856 75.296-74.784 75.296h-188.544c-0.029 0-0.062 0-0.096 0-41.611 0-75.351-33.696-75.424-75.289l-0-52.711h-157.952c-32.256 0-32.256-39.712 0-39.712l655.424-0.416c32.224 0 32.224 39.68 0 39.68l-158.624 0.448zM411.552 697.888h204.352c13.408 0 22.72-10.24 22.72-25.12v-64.64h-253.888v64.64c0 13.312 13.44 25.12 26.816 25.12zM327.2 32c-43.712 0-79.168 23.584-79.168 65.76v469.184h39.68v-470.624c0-13.504 12.384-25.44 26.4-25.44l396.032 0.736c14.016 0 26.4 11.936 26.4 25.408l-0.384 469.92h39.456l0.416-469.184c0-42.176-35.488-65.76-79.2-65.76h-369.632zM566.016 461.088c0 30.56 39.616 30.56 39.616 0v-262.176c0-30.56-39.616-30.56-39.616 0v262.176zM403.936 458.112c0 30.528 37.696 31.2 37.696 0.64v-262.176c0-30.56-37.696-31.2-37.696-0.64v262.176z"  horiz-adv-x="1024" />

    
    <glyph glyph-name="xiazai" unicode="&#58956;" d="M495.168 299.392l-156.288 156.288c-3.626 3.263-8.449 5.259-13.739 5.259-11.364 0-20.576-9.212-20.576-20.576 0-5.289 1.996-10.112 5.275-13.757l191.407-191.437c3.712-3.744 8.857-6.061 14.544-6.061s10.832 2.318 14.543 6.060l191.425 191.457c3.263 3.626 5.259 8.449 5.259 13.739 0 11.364-9.212 20.576-20.576 20.576-5.289 0-10.112-1.996-13.757-5.275l-156.365-156.367v416.16c-0.448 11.009-9.482 19.765-20.56 19.765-11.078 0-20.112-8.755-20.559-19.724l-0.001-416.104zM798.368 299.2v-195.104c-0.018-17.042-13.811-30.857-30.843-30.912l-503.589-0c-17.024 0.073-30.798 13.881-30.816 30.91l-0 195.106c-0.448 11.009-9.482 19.765-20.56 19.765-11.078 0-20.112-8.755-20.559-19.724l-0.001-205.416c-0-0.019-0-0.042-0-0.064 0-34.075 27.596-61.705 61.659-61.76l524.165-0c34.068 0.055 61.664 27.685 61.664 61.76 0 0.023-0 0.045-0 0.068l0 205.372c-0.448 11.009-9.482 19.765-20.56 19.765s-20.112-8.755-20.559-19.724z"  horiz-adv-x="1024" />

    
    <glyph glyph-name="shuaxin" unicode="&#58954;" d="M805.28 427.296c5.289 3.037 9.169 8.023 10.689 13.954l46.463 120.606c0.966 2.399 1.527 5.18 1.527 8.092 0 9.348-5.776 17.347-13.953 20.623-2.483 0.966-5.185 1.495-8.011 1.495-9.449 0-17.516-5.918-20.696-14.25l-39.603-103.256-103.040 39.552c-2.416 0.985-5.219 1.557-8.156 1.557-9.348 0-17.343-5.792-20.592-13.983-0.945-2.462-1.462-5.138-1.462-7.935 0-9.46 5.915-17.539 14.249-20.739l123.128-47.283c2.404-0.961 5.191-1.519 8.108-1.519 4.184 0 8.1 1.147 11.45 3.144zM761.088 277.216c-40.701-112.093-146.288-190.72-270.239-190.72-0.012 0-0.023 0-0.035 0-157.041 1.712-283.689 129.418-283.689 286.704 0 157.286 126.648 284.992 283.529 286.703 0.294 0.002 0.45 0.002 0.607 0.002 117.886 0 219.141-71.209 263.097-172.959l27.050-12.001 12.32 31.456c-52.577 117.338-168.34 197.6-302.85 197.6-0.022 0-0.044-0-0.066-0-182.717 0-330.813-148.096-330.813-330.816 0-182.72 148.096-330.816 330.816-330.816 143.872 0 266.304 91.84 311.84 220.096 2.56 7.2 1.536 24.352-14.848 28-16.416 3.616-24.512-7.008-26.72-13.248z"  horiz-adv-x="1024" />

    
    <glyph glyph-name="yushen" unicode="&#58923;" d="M522.176 736c54.368-1.12 79.488-16.448 110.08-34.816 52.512-36.608 143.776-153.44 33.504-295.616 0 0-16.064-22.464-22.624-45.184-8.64-24.576 10.176-65.024 33.472-65.024h109.568c36.512 0 65.984-29.6 65.984-66.08v-101.12c0-4.96-3.936-8.96-8.8-8.96H522.24v39.616h290.304v70.464a26.4 26.4 0 0 1-26.4 26.496h-109.568c-53.12 0-87.328 68.096-71.232 116.544 3.008 10.112 7.296 20.224 12.512 30.336a219.2 219.2 0 0 0 16.576 27.2c74.08 95.488 46.528 188.32-23.776 238.08a731.904 731.904 0 0 1-12.384 7.36c-25.536 14.72-43.648 20.352-76.224 21.12-32.544-0.768-50.656-6.4-76.224-21.12-3.36-1.952-5.696-3.328-12.384-7.36-70.304-49.76-97.856-142.592-22.816-239.36 4.16-5.824 9.888-14.848 15.616-25.92 5.248-10.112 9.536-20.224 12.544-30.336 16.064-48.448-18.144-116.544-71.264-116.544H257.984a26.4 26.4 0 0 1-26.368-26.496v-70.464h290.272v-39.616H200.832a8.896 8.896 0 0 0-8.832 8.96v101.12c0 36.48 29.472 66.08 65.984 66.08h109.568c23.296 0 42.112 40.448 33.504 65.024-6.592 22.72-22.624 45.184-22.624 45.184-110.272 142.176-19.04 259.008 33.472 295.616 30.592 18.368 55.744 33.696 110.08 34.816h0.192zM192 63.04a12.8 12.8 0 0 0 12.608 12.96H839.36c6.976 0 12.608-5.76 12.608-12.96v-9.024c0-12.16-9.856-22.016-21.952-22.016H213.952A21.92 21.92 0 0 0 192 54.016v9.024z"  horiz-adv-x="1024" />

    
    <glyph glyph-name="zhongxinyaoqing" unicode="&#58935;" d="M861.536 252.384c-1.241-2.276-2.831-4.2-4.723-5.774 1.847 0.654-1.584-2.407-5.722-4.089l-91.315-89.529c-3.502-3.203-8.186-5.165-13.327-5.165-10.922 0-19.776 8.854-19.776 19.776 0 5.389 2.155 10.274 5.651 13.841l61.757 59.613h-152.64c-10.865 0.125-19.638 8.909-19.744 19.767-0 10.921 8.608 19.785 19.776 19.785h154.88l-64.096 61.792c-3.492 3.564-5.647 8.449-5.647 13.837 0 10.922 8.854 19.776 19.776 19.776 5.142 0 9.825-1.962 13.342-5.179l96.433-93.106c4.787-3.642 7.846-9.342 7.846-15.756 0-3.533-0.928-6.849-2.553-9.718zM467.808 399.52l-238.496 200.128h-22.912c-3.415-0.017-6.177-2.79-6.177-6.208 0-0.045 0-0.090 0.001-0.135l-0-20.889 252.928-212.224c3.383-2.89 7.796-4.663 12.623-4.707 0.925-0.228 2.225-0.36 3.556-0.36 4.891 0 9.365 1.784 12.807 4.737l252.902 212.17v20.928c0 0.029 0.001 0.062 0.001 0.096 0 3.418-2.762 6.19-6.175 6.208l-22.946 0-238.080-199.744zM775.584 595.968c0 24.48-19.584 44.032-43.776 44.032h-527.968c-24.064 0-43.84-19.584-43.84-43.776v-396.128c0-24.224 19.648-43.776 43.84-43.776l395.936 0.416s19.264 0 19.264 19.392c0 19.424-19.296 20.16-19.296 20.16l-395.936-0.384c-0-0-0-0-0-0-2.322 0-4.206 1.873-4.224 4.19l-0 396.13c0 2.24 1.952 4.192 4.192 4.192h528.064c2.336 0 4.224-1.856 4.224-4.448l-0.32-153.92s1.6-18.976 19.904-18.976c18.272 0 19.68 18.88 19.68 18.88l0.32 154.016zM200.224 203.392c-0-0.020-0-0.044-0-0.068 0-3.456 2.739-6.272 6.165-6.396l20.491-0 210.72 174.88-30.336 25.984-207.040-175.264v-19.136z"  horiz-adv-x="1024" />

    
    <glyph glyph-name="zhifujihua" unicode="&#58927;" d="M480 234.016c-0.002-0.353-0.004-0.77-0.004-1.188 0-105.367 85.417-190.784 190.784-190.784 0.418 0 0.835 0.001 1.252 0.004 0.289-0.003 0.706-0.004 1.124-0.004 105.367 0 190.784 85.417 190.784 190.784 0 0.429-0.001 0.857-0.004 1.286 2.752 106.878-85.024 191.87-191.968 191.87-104.224 0-191.968-84.992-191.968-191.968zM691.808 248.288v71.712c0.002 0.095 0.003 0.208 0.003 0.32 0 10.887-8.825 19.712-19.712 19.712-0.035 0-0.069-0-0.104-0-10.933-0.197-19.733-9.076-19.803-20.027l-0-90.661c-0.011-0.253-0.017-0.55-0.017-0.848s0.006-0.595 0.019-0.89c0.059-10.799 8.861-19.564 19.71-19.564 1.844 0 3.63 0.253 5.323 0.727l65.301-0.033c0.010-0 0.021-0 0.033-0 10.834 0 19.616 8.782 19.616 19.616 0 0.068-0 0.135-0.001 0.202-0.089 10.832-8.818 19.605-19.634 19.766l-50.734 0zM672 73.984c-88.288 0-160 71.744-160 160 0 88.32 71.712 160 160 160s160-71.68 160-160c0-88.256-71.712-160-160-160zM688 692.064c0 24.384-19.744 43.936-44.096 43.936h-439.808c-24.352 0-44.096-19.616-44.096-43.84v-572.352c0-24.064 19.712-43.808 44.064-43.808h265.728s21.216 0 21.216 19.648-21.216 19.936-21.216 19.936h-265.728c-2.464 0-4.48 2.016-4.48 4.224v572.384c0 2.24 1.984 4.192 4.512 4.192h439.808c2.56 0 4.48-1.92 4.48-4.32v-222.144s0.256-20.256 19.936-20c19.68 0.256 19.68 20 19.68 20v222.144zM248 320.224c0 10.912 8.896 19.776 19.52 19.776h180.96c10.784 0 19.52-9.184 19.52-19.808 0-0.010 0-0.022 0-0.034 0-10.832-8.709-19.63-19.506-19.774l-180.974-0c-10.813 0.198-19.504 9.001-19.52 19.839zM248 210.208c0 10.912 8.96 19.808 19.52 19.808h136.96c10.94-0 19.808-8.868 19.808-19.808 0-10.94-8.868-19.808-19.808-19.808h-136.96c-10.809 0.18-19.504 8.976-19.52 19.807zM402.048 532.064h-48.48c-9.664 0.108-17.465 7.932-17.536 17.594-0 9.702 7.584 17.606 17.536 17.606h37.312l-43.488 51.84c-2.588 3.049-4.162 7.029-4.162 11.378 0 5.399 2.426 10.231 6.248 13.465 3.074 2.531 7.017 4.053 11.316 4.053 5.425 0 10.284-2.424 13.553-6.247l43.54-51.864 43.456 51.84c3.29 3.848 8.149 6.272 13.574 6.272 4.299 0 8.242-1.522 11.321-4.056 3.817-3.231 6.243-8.063 6.243-13.462 0-4.348-1.574-8.329-4.183-11.403l-43.499-51.815h49.664c9.696 0 17.536-8.16 17.536-17.6 0-9.728-7.552-17.6-17.536-17.6h-57.28v-30.816h57.28c9.696 0 17.536-8.16 17.536-17.6 0-9.696-7.552-17.6-17.536-17.6h-57.28v-35.104c-0-9.72-7.88-17.6-17.6-17.6-9.72 0-17.6 7.88-17.6 17.6l0 35.104h-48.448c-9.664 0.108-17.465 7.932-17.536 17.594-0 9.734 7.552 17.606 17.536 17.606h48.448l0.064 30.816z"  horiz-adv-x="1024" />

    
    <glyph glyph-name="caidan-xiala" unicode="&#58925;" d="M160 581.6c-0 0.048-0 0.104-0 0.16 0 14.492 11.748 26.24 26.24 26.24 0.023 0 0.045-0 0.068-0l651.388 0c14.528 0 26.304-11.712 26.304-26.4 0-0.048 0-0.104 0-0.16 0-14.492-11.748-26.24-26.24-26.24-0.023 0-0.045 0-0.068 0l-651.388-0c-0-0-0-0-0-0-14.527 0-26.304 11.777-26.304 26.304 0 0.034 0 0.067 0 0.101zM380 350.592c0.090 14.6 11.947 26.4 26.56 26.4 0.056 0 0.113-0 0.169-0.001l430.551 0c14.752 0 26.72-11.712 26.72-26.4-0.090-14.6-11.947-26.4-26.56-26.4-0.056 0-0.113 0-0.169 0.001l-430.551-0c-0.067-0.001-0.145-0.001-0.224-0.001-14.6 0-26.442 11.809-26.496 26.396zM512 119.616c0 14.56 11.712 26.4 26.464 26.4h299.072c0 0 0 0 0 0 14.58 0 26.4-11.82 26.4-26.4 0-14.58-11.82-26.4-26.4-26.4-0 0-0 0-0 0h-299.072c-0.029-0-0.062-0-0.096-0-14.563 0-26.368 11.805-26.368 26.368 0 0.011 0 0.023 0 0.034z"  horiz-adv-x="1024" />

    
    <glyph glyph-name="gengduoxiala" unicode="&#58946;" d="M160 613.6c-0 0.048-0 0.104-0 0.16 0 14.492 11.748 26.24 26.24 26.24 0.023 0 0.045-0 0.068-0l651.388 0c14.528 0 26.304-11.712 26.304-26.4 0-0.048 0-0.104 0-0.16 0-14.492-11.748-26.24-26.24-26.24-0.023 0-0.045 0-0.068 0l-651.388-0c-0-0-0-0-0-0-14.527 0-26.304 11.777-26.304 26.304 0 0.034 0 0.067 0 0.101zM160 375.552c-0 0.048-0 0.104-0 0.16 0 14.492 11.748 26.24 26.24 26.24 0.023 0 0.045-0 0.068-0l651.388 0c14.528 0 26.304-11.712 26.304-26.4 0-0.048 0-0.104 0-0.16 0-14.492-11.748-26.24-26.24-26.24-0.023 0-0.045 0-0.068 0l-651.388-0c-0-0-0-0-0-0-14.527 0-26.304 11.777-26.304 26.304 0 0.034 0 0.067 0 0.101zM160 137.504c-0 0.057-0.001 0.125-0.001 0.192 0 14.492 11.748 26.24 26.24 26.24 0.023 0 0.045-0 0.068-0l651.388 0c14.528 0 26.304-11.744 26.304-26.432 0-0.048 0-0.104 0-0.16 0-14.492-11.748-26.24-26.24-26.24-0.023 0-0.045 0-0.068 0l-651.388-0c-0-0-0-0-0-0-14.527 0-26.304 11.777-26.304 26.304 0 0.034 0 0.067 0 0.101z"  horiz-adv-x="1024" />

    
    <glyph glyph-name="caidan-pingpu" unicode="&#58924;" d="M160 581.6A26.24 26.24 0 0 0 186.08 608h459.84c14.4 0 26.08-11.712 26.08-26.4a26.24 26.24 0 0 0-26.08-26.4H186.08A26.176 26.176 0 0 0 160 581.6z m220-231.008a26.56 26.56 0 0 0 26.72 26.4h430.56c14.752 0 26.72-11.712 26.72-26.4a26.56 26.56 0 0 0-26.72-26.4H406.72a26.496 26.496 0 0 0-26.72 26.4zM160 119.616a26.24 26.24 0 0 0 26.08 26.4h459.84c14.4 0 26.08-11.744 26.08-26.4a26.24 26.24 0 0 0-26.08-26.432H186.08A26.176 26.176 0 0 0 160 119.616z"  horiz-adv-x="1024" />

    
    <glyph glyph-name="tishi-jinggao" unicode="&#59128;" d="M512 84.8c165.244 0 299.2 133.956 299.2 299.2s-133.956 299.2-299.2 299.2c-165.244 0-299.2-133.956-299.2-299.2 0-165.244 133.956-299.2 299.2-299.2zM512 32c-194.4 0-352 157.6-352 352s157.6 352 352 352 352-157.6 352-352-157.6-352-352-352zM479.744 206.048c0 23.072 18.528 41.792 41.76 41.792 23.072 0 41.792-18.56 41.792-41.792 0-23.104-18.56-41.824-41.792-41.824-0.019-0-0.042-0-0.064-0-23.046 0-41.728 18.682-41.728 41.728 0 0.034 0 0.068 0 0.101zM480.48 540.8c-0.028 0.557-0.044 1.209-0.044 1.866 0 21.65 17.55 39.2 39.2 39.2 0.635 0 1.266-0.015 1.893-0.045l3.015-0.093c23.456-0.736 41.792-20.48 40.96-43.936l-7.936-221.184c-0.896-23.552-20.384-42.592-34.56-42.592-18.24 0-33.696 18.848-34.496 42.304l-8 224.48z"  horiz-adv-x="1024" />

    
    <glyph glyph-name="tishi-zhengque" unicode="&#58932;" d="M512 84.8c165.244 0 299.2 133.956 299.2 299.2s-133.956 299.2-299.2 299.2c-165.244 0-299.2-133.956-299.2-299.2 0-165.244 133.956-299.2 299.2-299.2zM436.832 224.32c4.852-6.744 12.679-11.084 21.52-11.084 7.354 0 14.006 3.003 18.798 7.85l242.402 242.402c5.392 4.859 8.767 11.866 8.767 19.662 0 14.598-11.834 26.432-26.432 26.432-7.788 0-14.789-3.368-19.626-8.726l-223.637-223.639-99.456 99.456c-4.685 4.299-10.958 6.934-17.846 6.934-14.598 0-26.432-11.834-26.432-26.432 0-6.888 2.635-13.161 6.952-17.866l114.99-114.989zM512 32c-194.4 0-352 157.6-352 352s157.6 352 352 352 352-157.6 352-352-157.6-352-352-352z"  horiz-adv-x="1024" />

    
    </font>
</defs>
</svg>
