<?xml version="1.0" encoding="UTF-8" standalone="no"?>
<svg width="260px" height="116px" viewBox="0 0 260 116" version="1.1" xmlns="http://www.w3.org/2000/svg" xmlns:xlink="http://www.w3.org/1999/xlink">
    <!-- Generator: Sketch 47.1 (45422) - http://www.bohemiancoding.com/sketch -->
    <title>Group</title>
    <desc>Created with Sketch.</desc>
    <defs></defs>
    <g id="Page-1" stroke="none" stroke-width="1" fill="none" fill-rule="evenodd">
        <g id="Group">
            <rect id="Rectangle" fill="#3DABE8" x="0" y="0" width="260" height="116"></rect>
            <path d="M190.979237,44.3731189 L190.979237,42 L210.528489,42 L210.528489,42 C212.501914,42 214.10169,43.5997766 214.10169,45.573201 L214.10169,48.3655525 L214.10169,48.3655525 C214.10169,50.3389769 212.501914,51.9387535 210.528489,51.9387535 L195.279128,51.9387535 L195.279128,51.9387535 C194.292416,51.9387535 193.492528,52.7386418 193.492528,53.725354 L193.492528,55.7634544 L193.492528,55.7634544 C193.492528,56.7501666 194.292416,57.5500549 195.279128,57.5500549 L211.814068,57.5500549 L211.814068,57.5500549 C212.80078,57.5500549 213.600669,56.7501666 213.600669,55.7634544 L213.600669,54.973814 L215.968251,54.973814 L215.918665,57.7530736 L215.918665,57.7530736 L215.918665,57.7530736 C215.918665,58.9515868 214.947078,59.9231738 213.748565,59.9231738 L194.552438,59.9231738 L194.552438,59.9231738 C192.579014,59.9231738 190.979237,58.3233972 190.979237,56.3499728 L190.979237,53.1388356 L190.979237,53.1388356 C190.979237,51.1654112 192.579014,49.5656346 194.552438,49.5656346 L209.801799,49.5656346 L209.801799,49.5656346 C210.788512,49.5656346 211.5884,48.7657463 211.5884,47.7790341 L211.5884,46.1597194 L211.5884,46.1597194 C211.5884,45.1730072 210.788512,44.3731189 209.801799,44.3731189 L190.979237,44.3731189 Z M190.419075,62.3516003 L192.656146,63.2554357 L189.644053,70.7106292 L187.406981,69.8067938 L190.419075,62.3516003 Z M201.336528,63.1515409 L203.28849,61.7333568 L206.964421,66.7928409 L205.012458,68.2110251 L201.336528,63.1515409 Z M212.87519,63.7697254 L214.827152,62.3515413 L219.553349,68.8565923 L217.601386,70.2747764 L212.87519,63.7697254 Z M197.858901,71.7475473 L209.118891,71.7475473 L209.118891,71.7475473 C210.105603,71.7475473 210.905491,70.947659 210.905491,69.9609468 L210.905491,66.9915603 L213.31825,66.9915603 L213.31825,70.5856079 L213.31825,70.5856079 C213.31825,72.5590324 211.718473,74.1588089 209.745049,74.1588089 L197.232742,74.1588089 L197.232742,74.1588089 C195.259318,74.1588089 193.659541,72.5590324 193.659541,70.5856079 L193.659541,63.4213374 L196.0723,63.4213374 L196.0723,69.9609468 L196.0723,69.9609468 C196.0723,70.947659 196.872189,71.7475473 197.858901,71.7475473 Z M172.841161,71.7475473 L180.080695,71.7475473 L180.080695,71.7475473 C181.067407,71.7475473 181.867295,70.947659 181.867295,69.9609468 L181.867295,66.9915603 L184.280054,66.9915603 L184.280054,70.5856079 L184.280054,70.5856079 C184.280054,72.5590324 182.680278,74.1588089 180.706853,74.1588089 L172.215002,74.1588089 L172.215002,74.1588089 C170.241578,74.1588089 168.641801,72.5590324 168.641801,70.5856079 L168.641801,55.1339815 L171.05456,55.1339815 L171.05456,69.9609468 L171.05456,69.9609468 C171.05456,70.947659 171.854449,71.7475473 172.841161,71.7475473 Z M154.34397,42 L182.046018,42 L182.046018,44.4122056 L154.34397,44.4122056 L154.34397,42 Z M166.477065,52.7209137 L152.109935,52.7209137 L152.109935,55.1331193 L166.043685,55.1331193 C164.255984,62.8277037 158.825756,69.125365 151.668111,72.1114319 L153.083155,74.1298718 C160.875291,70.6958221 166.722468,63.660556 168.515157,55.1331193 L184.280054,55.1331193 L184.280054,52.7209137 L168.907958,52.7209137 C169.027272,51.6947385 169.088609,50.6508805 169.088609,49.5926999 C169.088609,47.4555677 169.088609,45.7279715 169.088609,44.4099114 L166.67585,44.4099114 C166.67585,45.7247724 166.67585,47.4523686 166.67585,49.5926999 C166.67585,50.6525869 166.608229,51.6966838 166.477065,52.7209137 Z M119.67206,42 L126.180576,42 L126.180576,42 C127.660644,42 128.860476,43.1998324 128.860476,44.6799007 L128.860476,63.3580702 L126.486813,63.3580702 L126.486813,45.8526645 L126.486813,45.8526645 C126.486813,45.1126304 125.886897,44.5127141 125.146862,44.5127141 L120.705773,44.5127141 L120.705773,44.5127141 C119.965739,44.5127141 119.365823,45.1126304 119.365823,45.8526645 L119.365823,63.6372607 L116.992159,63.6372607 L116.992159,44.6799007 L116.992159,44.6799007 C116.992159,43.1998324 118.191992,42 119.67206,42 Z M144.638356,43.814738 L146.732765,45.3502855 C144.312547,48.0491401 141.473488,50.7479543 138.215502,53.4468089 L136.539975,51.7716661 C139.518705,49.2589394 142.218138,46.6066566 144.638356,43.814738 Z M123.787961,63.8570925 C123.939743,63.0223464 124.019014,62.1623303 124.019014,61.2838037 C124.019014,55.0933729 124.019014,50.5993091 124.019014,47.8016122 L121.695616,47.8016122 L121.695616,61.2838037 C121.695616,66.1620953 118.777144,70.3588976 114.590571,72.2242177 L116.152116,74.0542693 C119.253334,72.4902065 121.707069,69.8302218 123.004234,66.5832839 L128.239268,73.0480119 L130.044887,71.5858505 L123.860238,63.9484453 L123.787961,63.8570925 Z M147.741037,72.5784966 C142.450726,69.5564796 138.773307,64.0345473 138.318862,57.6224118 L140.738339,57.6197252 C141.197572,63.2806207 144.531622,68.0986546 149.253926,70.6578988 L147.741037,72.5784966 Z M133.039997,57.6197252 L133.039997,70.2524612 C133.039997,72.3967716 134.780016,74.1350786 136.926438,74.1350786 L141.393611,74.1350786 L141.393611,71.7251782 L136.926438,71.7251782 C136.112278,71.7251782 135.452271,71.0658203 135.452271,70.2524612 L135.452271,57.6197252 L148.541089,57.6197252 L148.541089,55.3883359 L135.452271,55.3883359 L135.452271,42 L133.039997,42 L133.039997,55.3883359 L130.225678,55.3883359 L130.225678,57.6197252 L133.039997,57.6197252 Z" id="账无忌" fill="#FFFFFF" fill-rule="nonzero"></path>
            <path d="M110.73709,49.3422368 L108.837317,54.5024474 L106.275599,54.5030576 L108.087858,49.8400904 L96.0026465,49.8400904 L96.0749868,49.6392044 L93.6753349,56.2321942 L91.0894951,56.2847757 L96.281831,42.0189501 L98.8554299,42 L96.8797342,47.4281797 L109.435025,47.4281797 C109.465583,47.4260966 109.496422,47.4250379 109.527509,47.4250379 C110.267543,47.4250379 110.86746,48.0249541 110.86746,48.7649883 C110.86746,48.9716731 110.820664,49.1674283 110.73709,49.3422368 Z M90.2000687,49.5083651 L88.361458,54.5024474 L85.7997396,54.5030576 L87.6119979,49.8400904 L82.2265387,49.8400904 L82.2988792,49.6392044 L79.8992271,56.2321942 L77.3133873,56.2847757 L82.5057232,42.0189501 L85.0793224,42 L83.1036263,47.4281797 L88.7077856,47.4281797 C88.8409619,47.3838222 88.9834326,47.3598015 89.1315136,47.3598015 C89.8715477,47.3598015 90.471464,47.9597177 90.471464,48.6997519 C90.471464,49.0034912 90.3704018,49.2836262 90.2000687,49.5083651 Z M102.191799,57.2544824 C102.191799,63.6180789 105.996304,69.281783 111.743934,71.7495196 L110.79238,73.9657912 C106.225066,72.0048211 102.721851,68.2929192 100.985846,63.772912 C99.2518926,68.2875982 95.7548356,71.9962051 91.1949251,73.959077 L90.2412882,71.7437012 C95.9817433,69.2726489 99.7798884,63.6127715 99.7798884,57.2544824 L99.7798884,52.6968192 L102.191799,52.6968192 L102.191799,57.2544824 Z M88.7935527,71.7935564 L88.7935527,74.2034568 L85.6663296,74.2034568 C83.5199074,74.2034568 81.7798885,72.4651498 81.7798885,70.3208394 L81.7798885,54.5745817 L84.1921622,54.5745817 L84.1921622,70.3208394 C84.1921622,71.1341985 84.8521695,71.7935564 85.6663296,71.7935564 L88.7935527,71.7935564 Z" id="饮" fill="#FFFFFF" fill-rule="nonzero"></path>
            <path d="M71.4761418,44.9004804 L71.4763817,44.9005904 C70.4050636,46.8586009 69.0084395,48.5932888 67.3670441,50.0424227 L72.3905743,52.9427592 L71.1846189,55.0315352 L65.2970564,51.6323493 C63.8592424,52.5881344 62.2891521,53.3509713 60.626272,53.8903477 L59.4318856,51.7348082 C60.6557736,51.3758758 61.8258533,50.8795356 62.9221709,50.2612086 L59.5803083,48.3317833 L60.7862636,46.2430073 L65.1454368,48.7597772 C66.3791589,47.7735555 67.4737707,46.6118125 68.389597,45.305211 L60.0992556,45.305211 L60.0992556,42.8933002 L70.2204308,42.8933002 L70.2200354,42.8965347 C70.251035,42.8943903 70.2823247,42.8933002 70.3138691,42.8933002 C71.0539033,42.8933002 71.6538195,43.4932165 71.6538195,44.2332506 C71.6538195,44.4761816 71.5891719,44.7040132 71.4761418,44.9004804 Z M55.0448857,49.8088932 C54.9754299,49.9142998 54.9049845,50.0189288 54.8335644,50.1227688 C51.6701832,54.7221173 46.5946858,57.7737977 40.9013788,58.30624 L40.8933002,55.8830379 C42.8905731,55.6697896 44.7975371,55.101374 46.5402787,54.2332745 L42.9415199,51.2135573 C42.1557582,51.8282794 41.3222244,52.3812096 40.4485845,52.8665932 L40.4303422,50.0549339 C41.5754632,49.2914168 42.6246251,48.3872563 43.5514734,47.3622356 L43.573201,47.362203 L43.573201,47.3598015 L45.1744504,47.3598015 L46.6535274,47.3575832 C46.6529931,47.3583227 46.6524588,47.3590621 46.6519244,47.3598015 L54.2307372,47.3598015 L54.2307735,47.3612118 C54.2513329,47.360275 54.2720132,47.3598015 54.292804,47.3598015 C55.0328381,47.3598015 55.6327543,47.9597177 55.6327543,48.6997519 C55.6327543,49.1610165 55.3996839,49.5678445 55.0448857,49.8088932 Z M48.7314815,52.9233862 C49.9862493,52.0363156 51.1177168,50.9765738 52.0891806,49.7717122 L44.9754628,49.7717122 L48.7314815,52.9233862 Z M49.6923077,64.2690418 L49.6923077,65.8064516 L63.2258065,65.8064516 C63.5464879,65.8064516 63.8064516,65.5464879 63.8064516,65.2258065 L63.8064516,64.2690418 L49.6923077,64.2690418 Z M49.6923077,62.0357912 L63.8064516,62.0357912 L63.8064516,60.6253102 L49.6923077,60.6253102 L49.6923077,62.0357912 Z M47.280397,61.8328616 C45.395942,62.9500465 43.428407,63.9339907 41.3915603,64.7736434 L40.4723356,62.5437692 C47.1067038,59.8088726 52.966619,55.45669 57.5199868,49.9133844 L59.3837437,51.4443067 C59.1015133,51.7878962 58.8145249,52.12715 58.5228916,52.4619771 C63.0466554,56.2077217 68.290594,59.0136613 73.9309491,60.6841079 L73.2460435,62.9967292 C70.8265363,62.2801684 68.4763582,61.3657888 66.2183623,60.2674353 L66.2183623,65.2258065 C66.2183623,66.8785494 64.8785494,68.2183623 63.2258065,68.2183623 L59.5507578,68.2183623 L63.310225,69.892185 L66.5575002,68.0173697 L67.7634556,70.1061457 L66.0337649,71.1047831 L67.9758367,71.9694491 L66.9948242,74.1728392 L53.6208501,68.2183623 L49.6914136,68.2183623 L49.6914136,70.2524612 C49.6914136,71.0658203 50.3514208,71.7251782 51.1655808,71.7251782 L54.292804,71.7251782 L54.292804,74.1350786 L51.1655808,74.1350786 C49.0191588,74.1350786 47.2791399,72.3967716 47.2791399,70.2524612 L47.2791399,67.9057072 L47.280397,67.9057072 L47.280397,61.8328616 Z M52.5201426,58.2133995 L55.5848968,58.2133995 L55.1861042,57.117726 L57.4525589,56.292804 L58.1515985,58.2133995 L62.4527602,58.2133995 C60.5061106,57.0307252 58.6460642,55.7030967 56.8896901,54.240855 C55.5178304,55.6587424 54.0579776,56.9856022 52.5201426,58.2133995 Z M49.2009925,42 L51.6129032,42 L51.6129032,47.3598015 L49.2009925,47.3598015 L49.2009925,42 Z M51.6129032,42.8933002 L56.9727047,42.8933002 L56.9727047,45.305211 L51.6129032,45.305211 L51.6129032,42.8933002 Z" id="餐" fill="#FFFFFF" fill-rule="nonzero"></path>
        </g>
    </g>
</svg>