<?xml version="1.0" encoding="UTF-8" standalone="no"?>
<svg width="32px" height="32px" viewBox="0 0 32 32" version="1.1" xmlns="http://www.w3.org/2000/svg" xmlns:xlink="http://www.w3.org/1999/xlink">
    <!-- Generator: Sketch 47.1 (45422) - http://www.bohemiancoding.com/sketch -->
    <title>头像-男</title>
    <desc>Created with Sketch.</desc>
    <defs>
        <linearGradient x1="50%" y1="0.495869388%" x2="50%" y2="65.5143229%" id="linearGradient-1">
            <stop stop-color="#E5E5EF" offset="0.0797193878%"></stop>
            <stop stop-color="#FFFFFF" offset="100%"></stop>
        </linearGradient>
        <rect id="path-2" x="0" y="0" width="32" height="32" rx="16"></rect>
    </defs>
    <g id="新版图标" stroke="none" stroke-width="1" fill="none" fill-rule="evenodd">
        <g id="头像-男">
            <g>
                <mask id="mask-3" fill="white">
                    <use xlink:href="#path-2"></use>
                </mask>
                <use id="Mask" fill="url(#linearGradient-1)" xlink:href="#path-2"></use>
                <g id="男-copy-2" mask="url(#mask-3)" fill-rule="nonzero">
                    <g transform="translate(3.200000, 3.200000)" id="Shape">
                        <path d="M10.2300389,19.7528405 C4.5787808,21.887834 2.88539559,23.0267185 2.21468223,23.5380545 C1.18204929,24.3249805 0.610946822,27.2635019 0.00332036316,29.7570947 L25.5701167,29.7570947 C24.9624903,27.2635019 24.3913878,24.3249805 23.3587549,23.5380545 C22.6880415,23.0267185 21.0544228,21.9177173 15.4064851,19.7794034 L10.2300389,19.7528405 L10.2300389,19.7528405 Z" fill="#FFDECC"></path>
                        <path d="M10.2300389,19.7528405 C4.5787808,21.887834 2.88539559,23.0267185 2.21468223,23.5380545 C1.18204929,24.3249805 0.610946822,27.2635019 0.00332036316,29.7570947 L25.5701167,29.7570947 C24.9624903,27.2635019 24.3913878,24.3249805 23.3587549,23.5380545 C22.6880415,23.0267185 21.0544228,21.9177173 15.4064851,19.7794034 L10.2300389,19.7528405 L10.2300389,19.7528405 Z" fill="#445080"></path>
                        <path d="M15.5293385,15.4961349 L15.5293385,20.8983658 C14.0218936,22.4921401 11.5515435,22.4356939 10.0407782,20.8983658 L10.0407782,15.4961349 C10.0440986,12.5775357 15.5293385,12.5775357 15.5293385,15.4961349 Z" fill="#E8D0C2"></path>
                        <path d="M12.8,22.070454 C12.8,22.070454 8.97162127,22.85738 8.97162127,23.0599222 C8.97162127,23.259144 10.4292607,29.760415 10.4292607,29.760415 L15.6289494,29.760415 L16.2232944,23.0898054 L12.8,22.070454 L12.8,22.070454 Z" fill="#E5ECFF"></path>
                        <path d="M10.0440986,19.8258885 L10.0440986,20.8950454 L11.2361089,29.7570947 L9.18412451,29.7570947 L6.92959792,25.8125032 L9.08451362,24.5740078 L6.45478599,23.5148119 L8.87201038,20.2774578 L10.0440986,19.8258885 Z M15.5293385,19.8292088 L15.5293385,20.8950454 L14.3273671,29.7570947 L16.3760311,29.7570947 L18.6305577,25.8125032 L16.4789624,24.5740078 L19.10869,23.5148119 L16.960415,20.3770687 L15.5293385,19.8292088 Z" fill="#525F92"></path>
                        <polygon fill="#FFFFFF" points="10.0440986 19.1120104 9.80503243 19.9155383 10.4757458 24.1058366 12.8033204 22.070454"></polygon>
                        <path d="M11.6079896,23.1661738 L12.2720623,24.0527108 L13.3013748,24.0527108 L13.9654475,23.1661738 L12.8,22.070454 L11.6079896,23.1661738 Z M12.2720623,24.0560311 L11.3257588,29.7570947 L14.2476783,29.7570947 L13.3013748,24.0560311 L12.2720623,24.0560311 Z" fill="#6070B0"></path>
                        <polygon fill="#FFFFFF" points="15.5293385 19.1120104 15.7185992 19.9022568 15.0877302 24.1456809 12.8 22.070454 15.5293385 19.1120104"></polygon>
                        <path d="M4.63190661,11.8702983 C4.63190661,10.8243839 5.47859922,9.97437095 6.52783398,9.97437095 L6.55771725,9.97437095 L6.55771725,8.76243839 C6.44150454,8.74251621 6.3186511,8.73255512 6.19579767,8.73255512 C4.96726329,8.73255512 3.96783398,9.72866407 3.96783398,10.9605188 L3.96783398,12.1525292 C3.96783398,12.8697276 4.30983139,13.5105577 4.83444877,13.915642 C4.83776913,13.8625162 4.84108949,13.8093904 4.84773022,13.759585 C4.71159533,13.4972763 4.63190661,13.1984436 4.63190661,12.8830091 L4.63190661,11.8702983 L4.63190661,11.8702983 Z" fill="#FFEEE4"></path>
                        <path d="M6.55439689,11.6046693 L6.55439689,9.97769131 L6.52451362,9.97769131 C5.47859922,9.97769131 4.62858625,10.8243839 4.62858625,11.8736187 L4.62858625,12.8896498 C4.62858625,13.2050843 4.70827497,13.503917 4.84440986,13.7662257 C4.96062257,12.763476 5.63797665,11.9367056 6.55439689,11.6046693 Z" fill="#E8D0C2"></path>
                        <path d="M4.84773022,13.7629053 C4.90417639,13.8691569 4.96726329,13.9687678 5.04031128,14.061738 C5.37566796,14.2642802 5.77079118,14.3838132 6.1924773,14.3838132 C6.31533074,14.3838132 6.43486381,14.3738521 6.55439689,14.35393 L6.55439689,11.6079896 C5.63797665,11.9367056 4.96062257,12.763476 4.84773022,13.7629053 Z" fill="#F2DCCE"></path>
                        <path d="M20.9415305,11.8702983 C20.9415305,10.8243839 20.0948379,9.97437095 19.0456031,9.97437095 L19.0157198,9.97437095 L19.0157198,8.76243839 C19.1319326,8.74251621 19.254786,8.73255512 19.3776394,8.73255512 C20.6094942,8.73255512 21.6056031,9.72866407 21.6056031,10.9605188 L21.6056031,12.1525292 C21.6056031,12.8697276 21.2669261,13.5105577 20.7389883,13.915642 C20.735668,13.8625162 20.7323476,13.8093904 20.7257069,13.759585 C20.8618418,13.4972763 20.9415305,13.1984436 20.9415305,12.8830091 L20.9415305,11.8702983 L20.9415305,11.8702983 Z" fill="#FFEEE4"></path>
                        <path d="M19.0190402,11.6046693 L19.0190402,9.97769131 L19.0489235,9.97769131 C20.0948379,9.97769131 20.9448508,10.8243839 20.9448508,11.8736187 L20.9448508,12.8896498 C20.9448508,13.2050843 20.8651621,13.503917 20.7290272,13.7662257 C20.6128145,12.763476 19.9354604,11.9367056 19.0190402,11.6046693 Z" fill="#E8D0C2"></path>
                        <path d="M20.7257069,13.7629053 C20.6692607,13.8691569 20.6061738,13.9687678 20.5331258,14.061738 C20.1977691,14.2642802 19.8026459,14.3838132 19.3809598,14.3838132 C19.2581064,14.3838132 19.1385733,14.3738521 19.0190402,14.35393 L19.0190402,11.6079896 C19.9354604,11.9367056 20.6128145,12.763476 20.7257069,13.7629053 Z" fill="#F2DCCE"></path>
                        <path d="M19.1385733,15.433048 C19.1385733,17.1496757 15.0844099,19.4672892 13.1453178,19.4672892 L12.424799,19.4672892 C10.4558236,19.4672892 6.43154345,17.581323 6.43154345,15.433048 L6.43154345,7.68332036 C6.43154345,4.37291829 9.11439689,4.08736706 12.424799,4.08736706 L13.1453178,4.08736706 C16.4557198,4.08736706 19.1385733,4.37291829 19.1385733,7.68332036 L19.1385733,15.433048 Z" fill="#FFEEE4"></path>
                        <path d="M12.836524,17.9000778 C14.4568612,17.9000778 15.771725,16.585214 15.771725,14.9648768 L9.90132296,14.9648768 C9.90132296,16.5885344 11.2128664,17.9000778 12.836524,17.9000778 Z" fill="#E98F86"></path>
                        <path d="M9.90796368,15.1674189 C10.7546563,15.5260182 11.757406,15.735201 12.836524,15.735201 C13.915642,15.735201 14.9183917,15.5260182 15.7650843,15.1674189 C15.7684047,15.1010117 15.771725,15.031284 15.771725,14.9648768 L9.90132296,14.9648768 C9.90132296,15.0346044 9.90464332,15.1010117 9.90796368,15.1674189 Z" fill="#FEFFFE"></path>
                        <path d="M19.9553826,2.66957198 C19.9553826,1.54396887 19.3610376,0.557821012 18.4678599,0.00664072633 C17.9631647,1.10568093 16.8508431,1.86936446 15.5625422,1.86936446 L8.4735668,1.86936446 C7.96555123,1.86936446 7.5173022,2.12171206 7.25499351,2.50355383 C6.41494163,2.63636835 5.77079118,3.34028534 5.72098573,4.20357977 C5.71766537,4.22682231 5.71766537,4.25006485 5.71766537,4.27662776 L5.71766537,10.8476265 C5.71766537,11.1331777 5.93348898,11.3722438 6.2290013,11.4486122 L6.2290013,13.2515694 C6.2290013,13.3677821 6.33857328,13.4640726 6.47138781,13.4640726 C6.60420233,13.4640726 6.71377432,13.3677821 6.71377432,13.2515694 L6.71377432,11.42869 C6.97276265,11.3323995 7.15870298,11.1099351 7.15870298,10.8476265 L7.15870298,6.09286641 L7.15870298,6.05966278 C7.15870298,5.30261997 7.77297017,4.68503243 8.53333333,4.68503243 L14.4435798,4.68503243 C15.0180026,5.36238651 15.8746563,5.79403372 16.8309209,5.79403372 C17.4119844,5.79403372 17.9532036,5.63465629 18.4213748,5.35906615 L18.4213748,10.8476265 C18.4213748,11.0999741 18.5940337,11.319118 18.8397406,11.4187289 L18.8397406,13.2515694 C18.8397406,13.3677821 18.9493126,13.4640726 19.0821271,13.4640726 C19.2149416,13.4640726 19.3245136,13.3677821 19.3245136,13.2515694 L19.3245136,11.4552529 C19.6333074,11.3855253 19.8624125,11.1398184 19.8624125,10.8476265 L19.8624125,4.27662776 C19.8624125,4.13053178 19.8059663,3.99771725 19.7129961,3.89146563 C19.8690532,3.51626459 19.9553826,3.10453956 19.9553826,2.66957198 L19.9553826,2.66957198 Z" fill="#584E4F"></path>
                    </g>
                </g>
                <path d="M16,1 C7.71572875,1 1,7.71572875 1,16 C1,24.2842712 7.71572875,31 16,31 C24.2842712,31 31,24.2842712 31,16 C31,7.71572875 24.2842712,1 16,1 Z M16,0 C24.836556,-1.623249e-15 32,7.163444 32,16 C32,24.836556 24.836556,32 16,32 C7.163444,32 1.082166e-15,24.836556 0,16 C-1.082166e-15,7.163444 7.163444,1.623249e-15 16,0 Z" id="Mask" fill="#EAEAEA" fill-rule="nonzero" mask="url(#mask-3)"></path>
            </g>
        </g>
    </g>
</svg>