<?xml version="1.0" encoding="UTF-8" standalone="no"?>
<svg width="32px" height="32px" viewBox="0 0 32 32" version="1.1" xmlns="http://www.w3.org/2000/svg" xmlns:xlink="http://www.w3.org/1999/xlink">
    <!-- Generator: Sketch 47.1 (45422) - http://www.bohemiancoding.com/sketch -->
    <title>头像-女</title>
    <desc>Created with Sketch.</desc>
    <defs>
        <linearGradient x1="50%" y1="0.184005934%" x2="50%" y2="65.5143229%" id="linearGradient-1">
            <stop stop-color="#FFF0F0" offset="0.0797193878%"></stop>
            <stop stop-color="#FFFFFF" offset="100%"></stop>
        </linearGradient>
        <rect id="path-2" x="0" y="0" width="32" height="32" rx="16"></rect>
    </defs>
    <g id="新版图标" stroke="none" stroke-width="1" fill="none" fill-rule="evenodd">
        <g id="头像-女">
            <g>
                <mask id="mask-3" fill="white">
                    <use xlink:href="#path-2"></use>
                </mask>
                <use id="Mask" fill="url(#linearGradient-1)" xlink:href="#path-2"></use>
                <g id="女_1" mask="url(#mask-3)" fill-rule="nonzero">
                    <g transform="translate(2.666667, 4.444444)" id="Shape">
                        <path d="M10.6698188,1.03388495 C11.3790386,-0.107171001 17.0338849,-1.11583924 19.3412136,2.94405043 C21.6485422,7.00394011 20.4854216,8.42237983 21.7588652,9.85657998 C23.0323089,11.2876281 21.8345154,14.5752561 20.9487786,14.8652482 C20.0630418,15.1520883 20.4192277,16.2899921 20.8510638,16.7785658 C22.6918834,18.8620961 20.0283688,22.3766745 12.9204098,22.3420016 C5.32072498,22.3041765 3.82978723,18.215918 5.77777778,16.9424744 C6.41449961,16.5263987 6.66036249,15.7289204 5.96375099,15.0260047 C5.26713948,14.323089 3.66272656,11.7005516 5.17572892,9.55397951 C6.68873128,7.39795114 5.3680063,1.03073286 10.6698188,1.03388495 Z" fill="#CD9E2B"></path>
                        <path d="M15.8360914,17.7399527 C15.785658,17.821907 10.6981875,17.9038613 10.64145,17.9826635 C9.04334121,20.2616233 5.59180457,21.2608353 2.8463357,21.8754925 C0.113475177,22.4869976 0.00945626478,25.9574468 0.00630417652,28.2679275 L26.6351458,28.2679275 C26.6319937,25.9574468 26.5815603,22.499606 23.7919622,21.8754925 C21.0086682,21.251379 17.3522459,20.1229314 15.8360914,17.7399527 Z" fill="#FF8484"></path>
                        <path d="M15.9873916,12.8699764 L15.9873916,19.4074074 C14.3892829,22.212766 11.9873916,22.14342 10.6509062,19.4074074 L10.6509062,12.8699764 C10.6509062,9.3427896 15.9873916,9.3427896 15.9873916,12.8699764 Z" fill="#FFEEE4"></path>
                        <path d="M15.9873916,12.8699764 L15.9873916,17.248227 C14.9787234,18.0394011 14.0047281,18.4806935 13.3175729,18.4806935 C12.6335697,18.4806935 11.6595745,18.0394011 10.6509062,17.248227 L10.6509062,12.8699764 C10.6509062,9.3427896 15.9873916,9.3427896 15.9873916,12.8699764 Z" fill="#E8D0C2"></path>
                        <path d="M13.320725,17.393223 C11.5839243,17.393223 7.91489362,14.6635146 6.78014184,10.751773 C5.63278172,6.79905437 7.79196217,1.13475177 13.320725,1.13475177 C18.8494878,1.13475177 21.0086682,6.79905437 19.8613081,10.748621 C18.7265563,14.6603625 15.0575256,17.393223 13.320725,17.393223 Z" fill="#FFEEE4"></path>
                        <path d="M11.2277384,13.4562648 C12.1134752,12.5988968 12.8037825,13.2419228 13.320725,13.2419228 C13.8376675,13.2419228 14.5279748,12.5988968 15.4137116,13.4562648 C14.9377463,15.7163121 11.858156,15.785658 11.2277384,13.4562648 Z" fill="#FFA79F"></path>
                        <path d="M11.498818,13.572892 C11.9842396,13.4499606 14.4460205,13.4247439 15.1394799,13.5445232 C14.5689519,14.5973207 11.9842396,14.537431 11.498818,13.572892 L11.498818,13.572892 Z" fill="#FFFFFF"></path>
                        <path d="M11.2277384,13.4562648 C12.1134752,12.5988968 12.8037825,13.2419228 13.320725,13.2419228 C13.8376675,13.2419228 14.5279748,12.5988968 15.4137116,13.4562648 C14.0583136,14.1213554 12.1386919,13.8092987 11.2277384,13.4562648 Z" fill="#FFA79F"></path>
                        <path d="M20.6934594,9.81875493 C20.1355398,9.57919622 19.3443656,10.1686367 18.9314421,11.1331757 C18.5153664,12.1008668 18.6319937,13.0780142 19.1930654,13.3175729 C19.750985,13.5571316 20.5421592,12.9676911 20.9550827,12.0031521 C21.3711584,11.035461 21.2545311,10.0583136 20.6934594,9.81875493 Z M5.94168637,9.81875493 C6.49960599,9.57919622 7.29078014,10.1686367 7.7037037,11.1331757 C8.11977935,12.1008668 8.00315209,13.0780142 7.44208038,13.3175729 C6.88416076,13.5571316 6.0929866,12.9676911 5.68006304,12.0031521 C5.26398739,11.035461 5.38061466,10.0583136 5.94168637,9.81875493 Z" fill="#FFEEE4"></path>
                        <path d="M16.2395587,4.69345942 C16.3152088,7.72576832 16.4791174,9.54767533 18.2285264,8.8321513 C19.9779354,8.11662727 19.6469661,10.1245075 19.3286052,11.5555556 C20.8794326,9.62017336 20.6966115,7.78250591 20.214342,5.91646966 C19.6847912,3.86761229 17.0181245,0.753349094 14.5185185,0.810086682 C13.1599685,0.668242711 11.1048069,0.835303388 8.91725768,2.38613081 C5.09692671,5.09062254 6.37352246,11.1710008 7.40110323,11.8865248 C6.40504334,6.25689519 8.84475965,7.40110323 10.5279748,4.4570528 C11.0827423,3.16154452 16.1576044,1.50985028 16.2395587,4.69345942 Z" fill="#CD9E2B"></path>
                        <path d="M10.6509062,17.9763593 L8.74704492,19.7163121 L11.1710008,23.4767533 L13.2608353,21.4940898 L10.6509062,17.9763593 Z M15.9873916,17.963751 L17.894405,19.7793538 L15.3506698,23.4767533 L13.2608353,21.4940898 L15.9873916,17.963751 Z" fill="#FFFFFF"></path>
                        <polygon fill="#FFFFFF" points="13.0464933 21.5161545 13.5949567 21.5161545 13.5949567 28.2679275 13.0464933 28.2679275"></polygon>
                    </g>
                </g>
                <path d="M16,1 C7.71572875,1 1,7.71572875 1,16 C1,24.2842712 7.71572875,31 16,31 C24.2842712,31 31,24.2842712 31,16 C31,7.71572875 24.2842712,1 16,1 Z M16,0 C24.836556,-1.623249e-15 32,7.163444 32,16 C32,24.836556 24.836556,32 16,32 C7.163444,32 1.082166e-15,24.836556 0,16 C-1.082166e-15,7.163444 7.163444,1.623249e-15 16,0 Z" id="Mask" fill="#EAEAEA" fill-rule="nonzero" mask="url(#mask-3)"></path>
            </g>
        </g>
    </g>
</svg>